<?xml version="1.0" encoding="UTF-8" standalone="no"?>
<!-- Created with Inkscape (http://www.inkscape.org/) -->

<svg
   xmlns:dc="http://purl.org/dc/elements/1.1/"
   xmlns:cc="http://creativecommons.org/ns#"
   xmlns:rdf="http://www.w3.org/1999/02/22-rdf-syntax-ns#"
   xmlns:svg="http://www.w3.org/2000/svg"
   xmlns="http://www.w3.org/2000/svg"
   xmlns:sodipodi="http://sodipodi.sourceforge.net/DTD/sodipodi-0.dtd"
   xmlns:inkscape="http://www.inkscape.org/namespaces/inkscape"
   width="210mm"
   height="297mm"
   viewBox="0 0 744.09448819 1052.3622047"
   id="svg13455"
   version="1.1"
   inkscape:version="0.91 r13725"
   sodipodi:docname="border.svg">
  <defs
     id="defs13457" />
  <sodipodi:namedview
     id="base"
     pagecolor="#ffffff"
     bordercolor="#666666"
     borderopacity="1.0"
     inkscape:pageopacity="0.0"
     inkscape:pageshadow="2"
     inkscape:zoom="0.35"
     inkscape:cx="33.500815"
     inkscape:cy="407.83373"
     inkscape:document-units="px"
     inkscape:current-layer="layer1"
     showgrid="false" />
  <metadata
     id="metadata13460">
    <rdf:RDF>
      <cc:Work
         rdf:about="">
        <dc:format>image/svg+xml</dc:format>
        <dc:type
           rdf:resource="http://purl.org/dc/dcmitype/StillImage" />
        <dc:title></dc:title>
      </cc:Work>
    </rdf:RDF>
  </metadata>
  <g
     inkscape:label="Layer 1"
     inkscape:groupmode="layer"
     id="layer1">
    <path
       inkscape:connector-curvature="0"
       style="fill:#3b2110;fill-opacity:1;fill-rule:nonzero;stroke:none"
       d="m 382.06378,-3.1667814 c -0.53139,-0.04095 -1.1058,0.379997 -1.11225,1.04355 -0.0915,9.1688041 -2.41173,18.1341604 -3.89244,27.1571054 -0.74814,4.626624 -0.72819,9.090766 -0.50749,13.750659 0.0686,1.305075 -0.0291,2.593776 -0.23119,3.87838 -0.72779,4.622777 -2.84899,9.082559 -3.89245,13.618596 -1.05281,-4.5153 -3.14035,-8.958191 -3.87229,-13.562564 -0.19742,-1.276928 -0.2953,-2.573305 -0.23535,-3.878381 0.226,-4.654775 0.25119,-9.125303 -0.50728,-13.754488 -1.47032,-9.015266 -3.79497,-17.9795991 -3.8885,-27.1611994 -0.0208,-1.051738 -1.46637,-1.490858 -1.89572,-0.423765 -2.8575,7.195834 -5.16761,14.3154134 -4.79354,22.1151664 0.0955,1.996001 2.06072,9.347935 -2.71141,7.328904 -3.31201,-1.39976 -5.50949,-5.03299 -8.9256,-6.289448 -7.51535,-2.753456 -15.94302,-1.774905 -23.36734,0.571675 -7.79072,2.461733 -11.9263,6.320155 -16.04112,13.290801 -6.61632,11.213426 -6.17929,24.934892 3.19853,34.362156 8.84789,8.900111 24.54277,6.946077 34.50519,1.303543 4.55642,-2.571775 9.34353,-9.293421 8.39794,-14.598175 -0.99233,-5.570887 -6.32475,-9.705944 -11.089,-12.21118 -1.88345,-0.998001 -6.10674,-1.397446 -7.19259,-3.334588 -1.68583,-3.017031 4.6597,-5.30629 6.7379,-5.95371 5.18506,-1.612153 11.95746,1.651562 15.91121,4.594382 2.49112,1.855257 4.73826,4.013741 6.92037,6.209342 3.82906,3.853814 6.3954,6.942496 8.75934,11.89923 0.052,0.11014 0.23692,0.05118 0.21118,-0.06653 -10e-4,0 0,0 0,0 2.36312,-4.946743 4.93008,-8.025702 8.75519,-11.875423 2.18211,-2.198159 4.42385,-4.360758 6.91248,-6.213455 3.95105,-2.940262 10.72488,-6.206271 15.91517,-4.594118 2.07819,0.647421 8.42663,2.944601 6.73768,5.961632 -1.08024,1.929469 -5.30789,2.327399 -7.19635,3.330518 -4.75655,2.512912 -10.08356,6.628766 -11.08109,12.20733 -0.94288,5.307312 3.83611,12.02616 8.38984,14.597924 9.96242,5.647658 25.66291,7.60194 34.51349,-1.303295 9.37262,-9.419584 9.81195,-23.147459 3.19022,-34.358324 -4.1121,-6.968087 -8.24603,-10.839038 -16.02885,-13.290537 -7.43201,-2.346578 -15.8655,-3.329224 -23.37544,-0.575768 -3.41342,1.256456 -5.61609,4.890958 -8.9256,6.293275 -4.77463,2.019032 -2.80242,-5.33802 -2.7114,-7.328902 0.37407,-7.797196 -1.9377,-14.9231602 -4.7977,-22.1113194 -0.15796,-0.403049 -0.46054,-0.591634 -0.77933,-0.61569 z m 0.34498,6.1776098 c -0.41045,3.134744 1.12846,7.3519336 1.38824,10.5557676 0.29613,3.613273 0.35557,7.258277 0,10.871549 -0.67293,6.599594 -3.38973,11.154567 -6.22647,16.917379 -1.85478,-13.127538 3.14742,-25.332311 4.84634,-38.3446956 z m -19.93771,0.056305 c 1.69643,13.0072666 6.69468,25.2135726 4.84239,38.3487886 -2.82883,-5.770487 -5.55477,-10.320343 -6.2223,-16.917379 -0.36368,-3.61839 -0.30694,-7.263639 0,-10.87947 0.26226,-3.201276 1.79598,-7.4146376 1.38802,-10.5519396 z m 51.58538,20.0081086 c 1.80054,0.06653 3.64368,0.297107 5.5284,0.707567 18.43871,4.020147 32.1219,32.78173 13.14286,45.35397 -7.60887,5.051416 -17.89339,5.596994 -26.33852,2.127018 -7.34909,-3.014475 -16.96008,-10.498446 -11.34898,-19.360173 3.28104,-5.187042 8.65274,-9.500694 15.1238,-9.771947 5.13313,-0.214953 0.4574,6.781529 -0.98631,8.964333 -1.58296,2.369612 -5.43571,5.637688 -3.63287,8.708457 1.16128,1.980646 4.2426,3.089951 6.40912,3.358644 10.21429,1.253896 14.98498,-8.324078 10.55324,-16.917115 -0.93519,-1.81687 -2.43023,-3.509131 -4.2902,-4.430362 -3.08611,-1.517472 -3.88331,-2.575596 -6.03173,-5.18575 -1.62349,-1.985764 -3.53001,-3.568746 -6.03153,-4.354351 -8.08166,-2.548739 -16.40957,1.969386 -23.11172,7.617043 7.90313,-9.726662 18.41066,-17.281533 31.01444,-16.817334 z m -83.23698,0.05896 c 12.60482,-0.465734 23.10943,7.095523 31.01028,16.813238 -6.70215,-5.645097 -15.02592,-10.168094 -23.10757,-7.616797 -2.49901,0.790724 -4.4068,2.373459 -6.03567,4.354105 -2.14822,2.610154 -2.94397,3.673909 -6.02758,5.19394 -1.86767,0.916113 -3.35772,2.607863 -4.29021,4.422175 -4.43173,8.587918 0.34291,18.173835 10.5572,16.917379 2.16402,-0.268693 5.24139,-1.377752 6.40518,-3.350722 1.80531,-3.081005 -2.06115,-6.34779 -3.63288,-8.704607 -1.44684,-2.182804 -6.11818,-9.187495 -0.99025,-8.980217 6.47354,0.273808 11.8442,4.587482 15.12773,9.771964 5.6059,8.864288 -3.99843,16.35516 -11.34483,19.372197 -8.45052,3.464851 -18.73276,2.920296 -26.34682,-2.131121 -18.97904,-12.574797 -5.28899,-41.341251 13.14702,-45.353722 1.88491,-0.411483 3.72764,-0.64128 5.5284,-0.707812 z m 84.678,21.231563 c 0.24678,0.0256 0.51662,0.08966 0.81569,0.204719 1.31195,0.504118 2.6156,2.189193 3.65719,3.138572 1.78993,1.617272 3.32925,3.523195 3.31616,6.061698 0,4.025267 -6.89542,8.171071 -10.4803,6.625451 -3.0886,-1.328109 -3.61562,-3.861247 -3.04412,-6.673559 0.452,-2.231425 1.47135,-4.280898 2.62204,-6.233396 0.83419,-1.410507 1.38553,-3.291619 3.11334,-3.122727 z m -86.11901,0.05631 c 1.72426,-0.166435 2.27455,1.716294 3.11332,3.1268 1.15069,1.947381 2.17004,4.003261 2.62205,6.229569 0.5715,2.825107 0.0415,5.346987 -3.04434,6.68533 -3.58217,1.540502 -10.47531,-2.604012 -10.48819,-6.629279 0,-2.538503 1.53806,-4.453905 3.32011,-6.073735 1.04699,-0.941703 2.3442,-2.630626 3.66114,-3.134744 0.29843,-0.115263 0.56965,-0.179129 0.81591,-0.204718 z m 137.35524,12.46323 c 0.22081,6.031236 -13.58054,8.710995 -17.03552,12.802792 -2.33796,2.768811 -4.50986,5.68733 -7.37506,7.900841 1.34812,-0.284045 2.68606,-0.623113 3.99801,-1.019757 6.27862,-1.898762 12.19334,-5.704717 15.86654,-11.155329 0.054,-0.0843 0.19119,0 0.14133,0.07676 -3.30433,5.998236 -9.14257,10.042944 -15.06272,13.310759 -2.13283,1.179683 -4.35669,2.220671 -6.63231,3.118871 5.4889,-1.15153 10.59729,-1.884422 15.71212,-5.809888 5.56954,-4.273491 10.74028,-11.938642 10.387,-19.224042 z m -191.14454,0.531754 c -0.3506,7.282841 4.8214,14.946703 10.39094,19.220194 5.11503,3.922904 10.22321,4.666034 15.71211,5.817564 -2.27809,-0.900752 -4.49947,-1.945572 -6.63231,-3.122704 -5.91494,-3.270367 -11.7559,-7.310984 -15.0627,-13.306667 -0.0498,-0.09453 0.0853,-0.166435 0.14132,-0.07676 3.67049,5.448061 9.58355,9.250183 15.86238,11.151497 1.31446,0.396644 2.65115,0.734431 4.00197,1.023589 -2.8652,-2.221187 -5.03961,-5.136121 -7.37508,-7.904932 -3.45498,-4.096921 -17.25767,-6.773853 -17.03946,-12.802798 z m 255.73874,17.572979 c -5.84429,0.08699 -11.48946,3.381675 -12.77358,9.636082 -1.73778,8.470201 7.53924,15.87766 15.21295,11.30732 4.33053,-2.57944 4.53399,-11.580114 -1.24608,-12.626732 -0.53844,-0.09722 -1.1085,0 -1.68042,0.158655 4.37978,-1.015666 6.3179,4.678317 5.53649,7.92078 -1.69371,7.078129 -10.5258,6.916663 -14.66908,2.323311 -4.31494,-4.785286 -3.24986,-11.407151 1.42875,-15.429864 4.60049,-3.945932 11.08214,-3.500411 16.11406,-0.695772 10.95203,6.103148 11.52458,20.593847 2.23238,28.324512 -10.15962,8.46251 -23.58554,5.88334 -34.92725,1.69942 -13.36025,-4.93114 -26.33145,-10.871032 -39.86315,-15.369711 -12.43004,-4.140415 -25.40728,-6.117239 -38.32052,-3.130917 -11.07153,2.561537 -22.09674,7.840454 -30.20686,15.793748 -3.36915,3.30364 -6.23704,7.01313 -8.9256,10.87972 -3.31471,3.89733 -6.20609,8.11732 -8.96217,12.45478 -2.60438,4.10664 -6.72503,9.43929 -9.25043,14.73023 -2.54142,-5.11616 -6.46276,-10.22873 -8.98235,-14.19821 -2.75359,-4.33491 -5.646,-8.55644 -8.95822,-12.4512 -2.68855,-3.86406 -5.55893,-7.58403 -8.9256,-10.88766 -8.11014,-7.95049 -19.14197,-13.230679 -30.21081,-15.789653 -12.91344,-2.986323 -25.89317,-1.011038 -38.32072,3.126826 -13.53152,4.498678 -26.50294,10.438807 -39.86298,15.369947 -11.34169,4.18393 -24.76658,6.76466 -34.9314,-1.69531 -9.28949,-7.735776 -8.71549,-22.221609 2.23655,-28.324767 5.0317,-2.804639 11.51335,-3.252722 16.11404,0.695772 4.68113,4.02015 5.74203,10.643038 1.42459,15.425762 -4.14327,4.593363 -12.9687,4.762763 -14.66492,-2.323032 -0.78078,-3.248114 1.16899,-8.956168 5.56891,-7.904942 -0.58272,-0.171342 -1.1646,-0.270738 -1.71304,-0.171342 -5.77902,1.04918 -5.5764,10.04909 -1.24609,12.631091 7.67641,4.567768 16.95365,-2.843772 15.21317,-11.311421 -1.28245,-6.254396 -6.92889,-9.548308 -12.77357,-9.63634 -2.65677,-0.04091 -5.353,0.583958 -7.6999,1.891345 -8.49459,4.734105 -12.17172,14.82516 -7.69572,23.566614 4.14598,8.09404 14.5579,12.03998 23.32264,11.83527 6.49433,-0.14599 12.87125,-2.27315 18.8824,-4.53017 7.16976,-2.69204 14.33431,-5.38051 21.53273,-8.00088 14.21481,-5.176817 29.74032,-11.325008 45.20453,-9.920127 12.88994,1.169445 26.44554,6.082681 36.21821,14.614297 0.35849,0.31475 0.69765,0.64104 1.04305,0.96348 -20.25713,-14.212557 -47.78706,-14.228177 -70.80029,-5.82962 -12.529,4.57287 -23.94904,11.03047 -34.26995,19.38041 -9.33355,7.54896 -18.11159,15.839 -28.06361,22.62285 -9.80385,6.67125 -20.98385,12.21985 -33.16972,12.27103 -12.55496,0.0488 -25.49271,-5.10873 -33.62839,-14.73815 -8.58396,-10.154 -9.64798,-24.69177 -0.61306,-35.09402 6.36195,-7.326333 16.78426,-8.775732 25.49435,-4.765819 7.74645,3.554399 14.6267,11.413029 12.53812,20.379659 -2.11705,9.07157 -12.66011,18.72734 -22.69775,14.92213 -4.97725,-1.88596 -8.03988,-7.13874 -8.76725,-12.19529 -0.45719,-3.16033 0.61516,-6.36954 3.98181,-7.36498 3.51214,-1.03383 6.69509,-0.046 8.36553,3.29877 1.02871,2.06255 0.94911,4.87869 -1.01477,6.36544 -0.0291,0.0255 -0.0644,-0.0255 -0.0395,-0.0488 1.32735,-1.64031 0.89175,-3.72509 -0.20781,-5.35005 -0.0935,-0.13814 -0.18912,-0.25923 -0.29241,-0.37183 -0.44161,0.97242 -1.21427,1.90594 -1.42459,2.99094 -0.38716,2.00112 1.09998,4.02782 -0.84832,5.6016 4.40306,0.18423 7.90708,-3.90218 6.51471,-7.9607 -1.45474,-4.24534 -7.53946,-6.74675 -11.83611,-5.21393 -3.72515,1.33066 -4.88728,5.20803 -4.18069,8.78035 1.17688,5.96242 4.82783,12.10882 11.42608,13.10682 9.0505,1.37672 17.19035,-4.84823 20.7777,-12.67076 3.26277,-7.10396 0.97488,-15.12584 -4.72454,-20.30009 -5.70463,-5.179356 -14.04023,-8.101191 -21.77628,-6.54533 -9.70264,1.944818 -16.70343,11.04145 -18.57379,20.32797 -2.84192,14.08716 5.30851,25.83257 16.88921,33.06679 -6.03443,-2.75601 -11.85522,-5.83445 -17.6118,-9.24045 -7.59827,-4.48844 -15.61301,-9.72792 -24.49996,-11.26331 -6.64209,-1.15154 -13.381032,1.16049 -18.350386,5.56959 -7.312724,6.49211 -11.302218,17.2521 -5.11442,25.8656 4.527952,6.30532 13.681534,7.81333 19.755036,2.67492 5.71751,-4.84159 4.45812,-16.99699 -4.37146,-17.345 -3.145968,-0.12553 -7.437213,1.46885 -7.496856,5.18192 0,0.54763 0.07478,1.02307 0.215091,1.42739 -0.02339,-0.0255 -0.05191,-0.0255 -0.07687,-0.0409 1.563831,1.84758 3.413629,3.11888 5.917844,2.47913 2.564061,-0.65509 3.298911,-2.85247 5.223941,-4.17034 -2.49653,1.71195 -5.85904,-0.28406 -8.633417,1.9832 1.249412,1.34858 3.328637,0.64384 4.895167,0.29582 -1.670441,0.87772 -4.497193,2.06175 -6.149351,0.52382 -1.311961,-1.21808 -1.007085,-4.31905 0.284089,-5.52176 3.182114,-2.9505 9.162932,-2.41848 11.641172,1.24341 3.6601,5.40966 1.21864,13.04181 -4.82618,15.47795 -11.141779,4.48845 -20.946868,-6.70502 -18.086662,-17.40922 1.493593,-5.59392 5.370039,-10.55781 10.435617,-13.4904 5.579933,-3.22686 11.290775,-3.63041 17.400655,-1.70349 6.8763,2.16488 13.08531,5.93961 19.20287,9.63222 5.90725,3.56721 11.85855,6.67586 18.21261,9.38837 7.45029,3.18848 16.68825,6.61136 25.30754,6.1533 1.42355,0.10507 2.8313,0.13307 4.21331,0.0972 24.81602,-0.72419 43.74312,-18.56663 62.60536,-32.23923 10.35976,-7.50803 21.73722,-13.46814 34.14401,-16.96114 3.11727,-0.87772 6.30396,-1.64389 9.53035,-2.26315 -5.69153,1.56865 -11.10084,4.02962 -15.89897,7.561 -9.65567,7.11395 -17.03095,17.90105 -19.58443,29.55206 -2.46784,11.27228 -1.40838,24.31716 5.21583,34.13849 2.30679,3.42136 5.19028,6.39872 8.47901,8.83232 -1.44685,-0.75234 -2.87061,-1.55074 -4.25779,-2.40287 -8.65814,-5.30988 -15.53714,-13.01751 -24.13045,-18.45277 -6.93346,-4.38353 -17.61034,-9.45158 -25.98544,-6.08141 -7.07103,2.84045 -11.65342,11.76029 -10.80906,19.14036 0.95596,8.41903 10.48528,14.74045 18.36679,9.84001 5.12275,-3.18592 9.86683,-11.66762 5.53651,-17.24107 -2.38991,-3.07844 -6.24515,-3.93955 -9.84312,-2.46303 -3.7979,1.56353 -5.72955,6.00899 -3.86398,9.676 2.10916,4.14042 10.93189,2.6557 10.92669,-2.28312 0,-3.77961 -4.64661,-5.15504 -7.15601,-3.52242 3.10687,0.38896 4.22972,3.64064 3.06864,6.0256 l 0.0332,0 c 1.7222,-1.00823 1.55574,-3.94771 0.18703,-5.09414 -0.029,-0.0255 0,-0.0563 0.0332,-0.0409 1.78205,1.22063 2.39803,3.3223 1.21346,5.19805 -0.78451,1.23854 -2.32673,1.54843 -3.68545,1.67127 -7.21651,0.64997 -5.4912,-9.2525 -0.60475,-11.20755 3.73804,-1.497 8.44407,-0.25078 10.00523,3.69464 1.08585,2.75602 0.69702,5.87977 -0.56818,8.52062 -1.84959,3.85127 -5.46938,7.44969 -9.99712,7.82075 -6.0735,0.50156 -11.78167,-3.99687 -12.26213,-10.07188 -0.44952,-5.66812 2.27768,-12.96837 7.22897,-16.23362 5.2655,-3.47253 12.08381,-2.37013 17.67663,-0.27175 12.17299,4.57031 20.92942,14.37323 31.6113,21.3234 5.80063,3.77193 13.23909,7.42078 20.6763,8.66445 0.94828,0.22263 1.90634,0.41661 2.87788,0.55989 9.78306,1.44327 19.86435,-0.54122 27.88097,-6.3936 8.64005,-6.3053 14.47643,-17.79432 14.20627,-28.41663 -0.27786,-10.81678 -6.98105,-19.51602 -16.97442,-23.67435 -7.90813,-3.29086 -18.49982,-4.31264 -25.36052,1.80331 -6.64501,5.92914 -8.47464,16.52893 -6.09243,24.80209 2.31967,8.06076 9.10786,13.55002 17.80259,10.59952 4.69669,-1.59936 10.07566,-4.9232 11.76689,-9.81596 1.44164,-4.15577 -0.0208,-9.62737 -3.88433,-12.13516 -4.59799,-2.98122 -15.19133,-2.37245 -16.48749,4.27833 -1.26522,6.50491 6.23122,9.42958 11.60852,8.34457 -2.85749,-0.45038 -2.54578,-4.72823 -3.05222,-6.57324 -0.68331,-2.47965 -3.95979,-4.16166 -3.97787,-0.30785 -0.0208,1.79642 1.41691,3.47049 2.52875,4.74997 0.0234,0.0283 -0.0208,0.0689 -0.0415,0.0512 -2.92256,-1.78104 -5.08076,-5.86134 -2.29348,-8.66853 2.55887,-2.57945 7.07061,-3.09124 10.21657,-1.27948 2.67297,1.53793 4.76134,4.95341 4.66781,8.03696 -0.10383,3.39322 -2.06177,6.27256 -4.71665,8.33254 -4.20583,3.26781 -10.87619,6.11493 -16.06126,3.26679 -4.00301,-2.20073 -6.13169,-6.52488 -6.94489,-10.83164 -1.77685,-9.44005 1.44892,-21.83469 11.93337,-24.76216 9.59603,-2.67668 21.57782,1.45145 27.92147,8.93646 8.70511,10.26915 6.01843,25.21124 -1.63968,35.32176 -6.45548,8.51883 -17.11366,13.06817 -27.82423,12.65105 -10.79348,-0.43247 -21.4812,-5.47439 -27.51561,-14.51013 -7.10221,-10.63765 -8.02743,-24.35608 -3.51505,-36.13759 4.33821,-11.31578 13.35026,-21.63534 25.08435,-25.85765 23.16139,-8.33457 49.31579,2.11678 68.10529,15.58979 6.22666,4.46026 16.79174,18.57428 25.97733,14.97381 -10e-4,0 -10e-4,0 0,0 8.53241,0.54379 17.77556,-11.43835 23.4324,-15.48971 18.792,-13.473 44.93974,-23.92565 68.10113,-15.59362 11.73656,4.22485 20.75276,14.54188 25.0885,25.85765 4.51485,11.78152 3.58445,25.49968 -3.51505,36.13734 -6.03714,9.03829 -16.72462,14.07896 -27.51562,14.5063 -10.71305,0.42225 -21.36895,-4.12659 -27.82421,-12.64286 -7.65811,-10.11563 -10.34479,-25.05673 -1.6399,-35.32589 6.34118,-7.48755 18.32296,-11.60774 27.92169,-8.92851 10.48445,2.92236 13.7127,15.3165 11.93337,24.75398 -0.8132,4.30676 -2.94189,8.62962 -6.94489,10.82778 -5.18508,2.84559 -11.85563,0 -16.06148,-3.26269 -2.65488,-2.05742 -4.61107,-4.93548 -4.71228,-8.32868 -0.0955,-3.08612 1.98924,-6.50133 4.65971,-8.03671 3.14575,-1.81431 7.66165,-1.3015 10.22031,1.27539 2.78748,2.80975 0.62513,6.88901 -2.29722,8.6726 -0.0313,0 -0.0582,-0.0308 -0.0374,-0.0563 1.11183,-1.27949 2.53911,-2.95357 2.52873,-4.74998 -0.0208,-3.85124 -3.29455,-2.16922 -3.97786,0.30786 -0.50645,1.84503 -0.19741,6.12285 -3.05223,6.57323 5.37731,1.08499 12.87208,-1.8381 11.6044,-8.34046 -1.29098,-6.65333 -11.88786,-7.26621 -16.48335,-4.28245 -3.86542,2.50779 -5.32618,7.97428 -3.88434,12.13516 1.69373,4.89021 7.07019,8.21944 11.7669,9.81623 8.69722,2.95049 15.4802,-2.53901 17.80257,-10.59977 2.38201,-8.27573 0.55509,-18.87807 -6.09262,-24.8021 -6.85801,-6.12105 -17.45281,-5.09414 -25.36031,-1.8033 -9.99339,4.15833 -16.69657,12.85783 -16.97462,23.6746 -0.27017,10.62232 5.56891,22.11518 14.20648,28.42048 8.01659,5.84982 18.09788,7.83149 27.88094,6.3936 0.97405,-0.14599 1.93106,-0.33984 2.88183,-0.5599 7.43741,-1.24878 14.8742,-4.89659 20.67234,-8.66852 10.68438,-6.95274 19.43812,-16.75183 31.6111,-21.31959 5.59302,-2.10094 12.41383,-3.20459 17.67684,0.26793 4.95128,3.27037 7.68098,10.56676 7.22896,16.23746 -0.48068,6.07499 -6.18862,10.57623 -12.26212,10.07211 -4.53044,-0.37361 -8.14607,-3.96972 -9.99317,-7.82098 -1.26769,-2.64086 -1.65818,-5.76998 -0.57233,-8.52855 1.56133,-3.94338 6.26989,-5.18756 10.00543,-3.69056 4.88893,1.96019 6.60759,11.86007 -0.60891,11.20753 -1.35851,-0.1203 -2.89699,-0.4276 -3.68151,-1.67125 -1.18187,-1.87317 -0.56838,-3.97741 1.21366,-5.19805 0.027,-0.0255 0.0623,0.0255 0.0374,0.0435 -1.3716,1.14642 -1.54222,4.08182 0.18287,5.09006 0.0208,0 0.0233,0 0.0374,0 -1.16379,-2.38496 -0.0478,-5.63666 3.06449,-6.02563 -2.51211,-1.63518 -7.14834,-0.25333 -7.15601,3.52268 0,4.93884 8.82002,6.42099 10.92667,2.28312 1.86518,-3.66445 -0.0644,-8.11525 -3.86812,-9.67622 -3.59278,-1.47654 -7.44781,-0.61673 -9.84291,2.45916 -4.32783,5.576 0.4177,14.05901 5.54044,17.24493 7.87882,4.89788 17.41083,-1.41947 18.36681,-9.83593 0.84685,-7.38009 -3.73949,-16.30271 -10.81323,-19.14831 -8.37239,-3.36504 -19.04389,1.70582 -25.97733,6.08934 -8.5958,5.43271 -15.47626,13.14034 -24.1344,18.45277 -1.38719,0.85214 -2.81096,1.64261 -4.25799,2.39494 3.28872,-2.43613 6.17241,-5.4071 8.4792,-8.82845 6.62422,-9.81623 7.68369,-22.86852 5.21584,-34.13827 -2.55368,-11.65099 -9.92875,-22.43809 -19.58462,-29.55204 -4.79791,-3.53394 -10.20723,-5.98979 -15.89876,-7.56101 3.22889,0.61673 6.41454,1.38389 9.5343,2.25907 12.4043,3.49555 23.78028,9.45977 34.14005,16.96523 18.86203,13.67261 37.79182,31.51736 62.60537,32.23899 1.38448,0.0359 2.78954,0 4.2131,-0.0997 8.61928,0.4555 17.85475,-2.96356 25.30774,-6.14948 6.35406,-2.71506 12.30266,-5.82371 18.2124,-9.38836 6.11506,-3.6926 12.33093,-7.46222 19.20701,-9.63223 6.10469,-1.9269 11.81159,-1.52207 17.39672,1.70736 5.06309,2.93257 8.9418,7.89927 10.43561,13.49065 2.86271,10.70161 -6.94509,21.89354 -18.08666,17.4051 -6.04504,-2.43613 -8.48899,-10.06826 -4.82617,-15.47793 2.47823,-3.65935 8.45883,-4.19239 11.64116,-1.23933 1.29097,1.20016 1.59583,4.30368 0.28409,5.52175 -1.65216,1.54051 -4.47891,0.34983 -6.14936,-0.52791 1.56904,0.35059 3.64556,1.0566 4.89517,-0.29198 -2.77188,-2.26725 -6.1344,-0.27637 -8.63341,-1.9832 1.92233,1.31787 2.66237,3.51271 5.22373,4.17036 2.50692,0.63463 4.35422,-0.6313 5.91806,-2.47889 -0.0259,0.0255 -0.052,0.0255 -0.0769,0.0359 0.14133,-0.40432 0.21873,-0.87591 0.21119,-1.42354 -0.0582,-3.71307 -4.34966,-5.31116 -7.49291,-5.18577 -8.82979,0.35059 -10.08917,12.50341 -4.37145,17.34499 6.07079,5.14098 15.23102,3.62914 19.75897,-2.67105 6.1851,-8.61606 2.19415,-19.37989 -5.11835,-25.86946 -4.96687,-4.41167 -11.7056,-6.72139 -18.35062,-5.56986 -8.88673,1.53795 -16.89731,6.77387 -24.49579,11.26743 -5.75906,3.40088 -11.58277,6.47626 -17.6199,9.23227 11.58069,-7.23422 19.7326,-18.97557 16.89337,-33.06272 -1.87307,-9.28652 -8.86865,-18.380325 -18.57379,-20.327706 -7.73604,-1.555861 -16.06771,1.367245 -21.77234,6.549166 -5.70192,5.17424 -7.9954,13.19229 -4.73265,20.29601 3.58737,7.82278 11.73137,14.04645 20.78187,12.67483 6.59553,-1.00311 10.25316,-7.14823 11.43003,-13.11064 0.70658,-3.57233 -0.46115,-7.44737 -4.18879,-8.7806 -4.29416,-1.53538 -10.37721,0.96754 -11.83196,5.21799 -1.39487,4.06111 2.11415,8.14369 6.51472,7.95688 -1.94582,-1.56865 -0.46138,-3.60175 -0.84833,-5.59775 -0.21042,-1.08756 -0.98194,-2.02362 -1.42876,-2.99092 -0.0976,0.1126 -0.19743,0.2303 -0.28823,0.36797 -1.10144,1.62751 -1.53039,3.71358 -0.20366,5.35389 0.0208,0.0308 -0.0208,0.0689 -0.0435,0.0488 -1.9639,-1.48933 -2.03829,-4.30805 -1.0148,-6.36548 1.67295,-3.34969 4.85341,-4.33513 8.36553,-3.29875 3.36398,0.99032 4.43631,4.20337 3.98182,7.36115 -0.72737,5.05909 -3.78749,10.30805 -8.76746,12.19914 -10.03764,3.80006 -20.58048,-5.85214 -22.69754,-14.92626 -2.09377,-8.96408 4.78752,-16.82268 12.53397,-20.379654 8.71279,-4.002247 19.13511,-2.553861 25.49435,4.769914 9.03741,10.39967 7.97152,24.93594 -0.6089,35.08995 -8.1386,9.63198 -21.07365,14.78934 -33.62838,14.73816 -12.18608,-0.0512 -23.36341,-5.59879 -33.16995,-12.27517 -9.9518,-6.77872 -18.72987,-15.06979 -28.06362,-22.61877 -10.32068,-8.34993 -21.73949,-14.81004 -34.26576,-19.380368 -23.01322,-8.395991 -50.54981,-8.382685 -70.80444,5.829858 0.34559,-0.31988 0.68477,-0.65151 1.04324,-0.96371 9.77267,-8.529068 23.32806,-13.439494 36.21802,-14.614063 15.46441,-1.404872 30.98992,4.743072 45.20471,9.919877 7.20092,2.622956 14.36047,5.311396 21.53271,8.000876 6.01116,2.25959 12.38788,4.38583 18.8822,4.53424 8.76475,0.20473 19.17544,-3.74121 23.31871,-11.83525 4.4812,-8.744009 0.80301,-18.839166 -7.69158,-23.570709 -2.34772,-1.308151 -5.04355,-1.931244 -7.69988,-1.891086 z m -319.81342,9.020371 c 0.27557,0.08193 0.55239,0.145969 0.82401,0.271771 -0.20158,-0.08967 -0.40774,-0.171559 -0.63321,-0.235426 -0.0665,-0.02562 -0.12681,-0.02562 -0.1912,-0.03585 z m 319.32629,-0.543791 c -0.0748,0.02562 -0.14538,0.02562 -0.22315,0.0436 -0.21457,0.05878 -0.41107,0.143314 -0.60475,0.22775 0.27307,-0.125492 0.55134,-0.191818 0.82794,-0.271761 z m -1.83857,0.903584 c -1.57714,1.091909 -2.80784,2.815383 -2.64657,4.45006 0.26497,2.669012 3.47515,4.107666 5.95857,3.306702 -1.35331,0.437587 -4.00133,-2.938479 -4.33904,-3.890412 -0.53325,-1.49905 -0.0873,-2.934367 1.02704,-3.86635 z m -315.69362,0.52381 c 1.11995,0.933006 1.57361,2.373199 1.0391,3.874295 -0.3377,0.951933 -2.98969,4.322616 -4.3432,3.882467 2.48613,0.80864 5.6961,-0.628216 5.95857,-3.294666 0.1621,-1.641083 -1.07192,-3.370683 -2.65447,-4.462096 z m 417.83317,29.304108 c -6.70735,0.0255 -11.66528,2.79824 -15.20089,8.34864 -2.11975,3.32411 -3.28894,7.09784 -5.0737,10.56781 3.03166,-3.89219 5.80251,-7.9753 10.23675,-10.46773 8.09972,-4.55499 18.09414,-4.96571 27.00438,-2.7829 0.0332,0 0.0208,0.0691 -0.0208,0.0638 -8.91271,-1.67868 -19.93418,-0.97009 -27.25978,4.88996 -3.77462,3.01448 -5.77362,7.16155 -8.60516,10.87973 5.65787,-5.16656 13.24761,-9.25734 20.85898,-10.81575 9.11285,-1.8655 20.23052,-1.28512 28.55885,-5.86568 -3.75362,1.89107 -9.87679,0.55093 -13.73951,-0.65178 -5.7385,-1.77849 -10.63553,-4.18162 -16.7635,-4.16627 z m -519.95671,0.52781 c -6.12796,0 -11.02499,2.38677 -16.763482,4.17036 -3.860234,1.19761 -9.9859,2.54541 -13.739519,0.65176 8.330828,4.58313 19.449961,3.99995 28.562801,5.86544 7.60887,1.55841 15.19302,5.64663 20.85087,10.81575 -2.82883,-3.72074 -4.82887,-7.87037 -8.60078,-10.87972 -7.32832,-5.86006 -18.34604,-6.57019 -27.264153,-4.89405 -0.03324,0 -0.04782,-0.0488 -0.02076,-0.0589 8.907513,-2.18279 18.901933,-1.77104 27.004163,2.77881 4.43174,2.49757 7.20258,6.57962 10.23673,10.47183 -1.78474,-3.47509 -2.95247,-7.24498 -5.06973,-10.57164 -3.53541,-5.54785 -8.4975,-8.32819 -15.20486,-8.34865 z m 375.21433,4.4782 c 0.56111,0.83679 1.07506,1.63109 1.55034,2.32714 4.64474,6.80943 10.82506,12.866 16.857,18.48039 0.027,0.028 -0.0208,0.0717 -0.0437,0.0512 -5.06557,-3.82056 -10.43145,-7.91924 -14.81124,-12.6508 1.42877,2.2084 2.8384,4.44723 4.39185,6.55326 2.76399,3.75913 5.32951,7.67745 10.07026,9.09255 3.5408,1.05942 7.28384,1.00721 10.77248,1.86703 -3.87831,-1.86037 -6.36506,-3.34635 -8.97838,-6.8931 -3.14325,-4.27092 -6.35115,-8.40955 -10.12306,-12.17125 -2.87558,-2.86862 -6.39063,-4.61511 -9.68456,-6.65716 z m 67.97125,0.0563 c -0.0643,8.37808 -16.76161,3.57873 -21.00111,4.79424 -2.48863,0.71397 -4.11211,1.86166 -6.2994,2.27108 0.69349,0.18937 1.38303,0.37183 2.07402,0.53561 6.43989,1.55075 12.90575,1.52207 19.12993,-0.87568 0.0353,0 0.0665,0.0359 0.029,0.0563 -5.76449,3.08102 -12.29351,4.10768 -18.79305,3.37069 -2.64968,-0.29684 -5.1911,-0.84651 -7.71611,-1.61932 2.01855,1.77337 3.96623,3.49095 6.70944,4.45825 0.42083,0.14336 0.85934,0.27381 1.31923,0.38384 4.33031,1.02615 11.08068,0.49054 15.09927,-1.48754 3.75384,-1.85781 9.97925,-7.16077 9.4493,-11.8872 z m -298.44716,0.47597 c -3.29392,2.04205 -6.80481,3.78858 -9.6806,6.65717 -3.77191,3.7617 -6.97979,7.90134 -10.12306,12.16715 -2.61332,3.55442 -5.09986,5.03811 -8.97839,6.89335 3.48616,-0.85213 7.22918,-0.80505 10.7725,-1.85934 4.74074,-1.4151 7.30211,-5.33981 10.0661,-9.09637 1.55346,-2.1086 2.96723,-4.34746 4.39599,-6.55329 -4.37728,4.73154 -9.74961,8.83282 -14.81518,12.65081 -0.0291,0.0255 -0.0645,-0.0255 -0.0374,-0.0485 6.02923,-5.61952 12.20144,-11.67125 16.84868,-18.48068 0.47279,-0.69859 0.99212,-1.49671 1.55054,-2.33095 z m -67.97124,0.0589 c -0.52993,4.72385 5.69694,10.02912 9.45325,11.87926 4.0161,1.9832 10.77145,2.52007 15.09928,1.49136 0.45989,-0.10998 0.8984,-0.24054 1.31923,-0.38793 2.74321,-0.96217 4.69109,-2.6846 6.70942,-4.45799 -2.52229,0.77281 -5.0716,1.32376 -7.7161,1.62315 -6.50201,0.73443 -13.02857,-0.28302 -18.79281,-3.36658 -0.0395,-0.0255 -0.0208,-0.0717 0.0259,-0.0589 6.22417,2.39776 12.69274,2.42106 19.12971,0.87542 0.69369,-0.16642 1.38574,-0.34751 2.07423,-0.53174 -2.18479,-0.40687 -3.81201,-1.55842 -6.29545,-2.27493 -4.24469,-1.21296 -20.94022,3.58536 -21.00505,-4.79016 z m 160.88076,36.75736 c -2.86042,-0.0359 -5.66098,0.75489 -7.67953,2.78287 -4.27068,4.2914 -4.47309,10.54604 -1.45701,15.65377 1.87805,3.17824 3.76421,4.93652 7.31002,6.05735 3.38495,1.0722 7.2296,1.51797 10.65069,0.26408 1.55616,-0.5732 2.562,-2.23118 4.07118,-2.87091 2.1769,-0.91612 1.27414,2.43818 1.22987,3.34661 -0.16834,3.55442 0.88407,6.79536 2.18771,10.07598 0.19328,0.48877 0.85809,0.28762 0.86058,-0.19695 0.0415,-4.1788 1.10352,-8.26523 1.77373,-12.37496 0.3456,-2.11115 0.3379,-4.14809 0.23145,-6.26948 -0.0259,-0.59624 0.0208,-1.18249 0.11009,-1.76338 0.3321,-2.10193 1.29222,-4.12788 1.76564,-6.1853 0.47591,2.06689 1.44017,4.09923 1.77373,6.20552 0.0915,0.586 0.13085,1.17097 0.10183,1.76723 -0.10183,2.1265 -0.10806,4.15936 0.23536,6.26538 0.67291,4.11228 1.72822,8.20024 1.76977,12.37905 0,0.48365 0.6723,0.68735 0.86453,0.19715 1.30407,-3.27549 2.35667,-6.52411 2.18772,-10.07598 -0.0437,-0.90842 -0.94288,-4.26144 1.23403,-3.34277 1.51187,0.63973 2.51252,2.29769 4.07117,2.8709 3.41861,1.25389 7.26179,0.80583 10.64654,-0.26383 3.54601,-1.12082 5.43051,-2.87935 7.30607,-6.05759 3.01857,-5.11028 2.81512,-11.36645 -1.45306,-15.65786 -4.03419,-4.05853 -11.1875,-3.16596 -15.72834,-0.59163 -2.0757,1.17201 -4.25737,4.22589 -3.82367,6.64923 0.45202,2.54362 2.88037,4.42191 5.04938,5.56578 0.86245,0.45549 2.78601,0.63924 3.27958,1.51951 0.77164,1.37674 -2.12287,2.42053 -3.06844,2.71481 -2.36394,0.73699 -5.45067,-0.75411 -7.25349,-2.09502 -1.13511,-0.84447 -2.15736,-1.83147 -3.14971,-2.82691 -1.74858,-1.76081 -2.91298,-3.1675 -3.9899,-5.42196 l 0,0 0,0 0,0 c -10e-4,-0.046 -0.0623,-0.0743 -0.0853,-0.0255 -1.07545,2.25957 -2.24838,3.66625 -3.99406,5.42171 -0.99503,1.00056 -2.01605,1.98653 -3.15386,2.83099 -1.80012,1.34089 -4.8854,2.82561 -7.24935,2.09118 -0.94555,-0.29428 -3.84402,-1.33834 -3.07259,-2.71507 0.49627,-0.88028 2.42234,-1.06374 3.2796,-1.51924 2.1717,-1.14386 4.5988,-3.02344 5.05351,-5.56194 0.43123,-2.41568 -1.75066,-5.48134 -3.82365,-6.65335 -2.26897,-1.28586 -5.19256,-2.15056 -8.05297,-2.18713 z m 1.01082,0.67171 c 1.57008,0.0666 3.13163,0.40254 4.5743,0.99545 3.35108,1.37417 7.72483,4.78658 5.17116,8.82462 -1.4988,2.36449 -3.94357,4.33133 -6.89209,4.45417 -2.33797,0.0972 -0.20784,-3.09483 0.45469,-4.09027 0.71428,-1.07477 2.47283,-2.56563 1.65196,-3.9705 -0.52994,-0.8982 -1.93272,-1.40465 -2.92256,-1.52747 -4.65243,-0.57065 -6.82559,3.79778 -4.80976,7.71302 0.42605,0.82399 1.10685,1.59806 1.95641,2.01518 1.40527,0.69091 1.76709,1.17713 2.74384,2.36704 0.74294,0.90332 1.61413,1.62495 2.75193,1.98321 3.68629,1.16433 7.47814,-0.90151 10.53308,-3.47073 -4.11481,5.06166 -9.78286,8.83564 -16.65396,7.3412 -8.39837,-1.82967 -14.6373,-14.94213 -5.98686,-20.67167 2.16716,-1.43634 4.81082,-2.07327 7.42786,-1.96325 z m 40.0903,0.028 c 2.61768,-0.10998 5.26447,0.52793 7.43202,1.96734 8.64774,5.73211 2.40986,18.83278 -5.99122,20.66757 -6.87088,1.497 -12.53645,-2.27673 -16.65374,-7.34093 3.05742,2.5692 6.85075,4.62842 10.53703,3.46665 1.13781,-0.35825 2.00482,-1.07863 2.74777,-1.97938 0.97966,-1.19248 1.33856,-1.6787 2.74404,-2.36705 0.85206,-0.41967 1.53039,-1.18864 1.95641,-2.01518 2.01833,-3.91779 -0.15584,-8.28596 -4.80581,-7.71276 -0.99232,0.12276 -2.39262,0.62797 -2.92255,1.5313 -0.82339,1.39975 0.93497,2.88908 1.65195,3.96641 0.65983,0.99544 2.78851,4.18622 0.45055,4.08641 -2.94583,-0.12276 -5.39581,-2.0858 -6.8921,-4.45031 -2.55617,-4.03804 1.82007,-7.4502 5.17115,-8.82436 1.44372,-0.59394 3.00382,-0.92918 4.5745,-0.99571 z m 183.12794,4.43419 c 0.88594,0.39921 1.75068,0.83474 2.58962,1.32352 5.65787,3.30363 9.08751,8.40519 10.6021,14.65422 0,0.0308 -0.0415,0.0384 -0.052,0 -1.88866,-6.04942 -7.05441,-10.69062 -12.76941,-13.31868 -0.6962,-0.32244 -1.40589,-0.62032 -2.12287,-0.89156 0.31173,0.22263 0.61555,0.46267 0.9092,0.72369 2.36914,2.11627 3.41655,5.15656 5.60133,7.49291 2.69647,2.87629 5.28463,3.1345 6.28736,7.38496 0.53762,2.2698 0.8269,5.02071 -0.0415,6.90923 4.5668,-4.07389 5.09944,-11.64129 2.72761,-16.96908 -2.70165,-6.07757 -7.67599,-7.24804 -13.73141,-7.31713 z m -403.79728,0.52794 c -6.05792,0.0742 -11.03123,1.24212 -13.73557,7.31713 -2.36913,5.32778 -1.84023,12.89415 2.73178,16.97317 -0.87035,-1.89109 -0.57982,-4.63943 -0.0457,-6.90924 1.00522,-4.25302 3.59235,-4.50636 6.2913,-7.3852 2.1821,-2.33379 3.22825,-5.3818 5.59738,-7.49295 0.29614,-0.26356 0.60143,-0.49848 0.91316,-0.72367 -0.71698,0.27125 -1.42792,0.56911 -2.12682,0.89154 -5.71502,2.62807 -10.88097,7.2693 -12.76941,13.31871 -0.0208,0.028 -0.0603,0.0255 -0.0519,0 1.51437,-6.24389 4.94815,-11.35007 10.60602,-14.64603 0.83647,-0.49133 1.70121,-0.93225 2.58964,-1.33145 z m 181.5531,0.8076 c 0.24235,0 0.46965,0.0614 0.67374,0.14844 1.40798,0.60648 1.648,1.76314 1.38824,3.04263 -0.20783,1.01847 -0.66711,1.95762 -1.18936,2.84302 -0.43371,0.73698 -0.707,1.75109 -1.79804,1.33141 -0.59748,-0.23286 -1.19018,-0.99901 -1.66816,-1.43148 -0.8132,-0.73698 -1.5125,-1.61036 -1.51002,-2.76701 0,-1.60294 2.40821,-3.25092 4.1036,-3.16647 z m 38.14198,0.028 c 1.69416,-0.0818 4.09696,1.56531 4.1036,3.17056 0,1.15665 -0.69826,2.02593 -1.51397,2.76292 -0.47278,0.4299 -1.06672,1.20117 -1.66421,1.43148 -1.09104,0.41967 -1.35747,-0.59955 -1.79389,-1.33142 -0.52744,-0.89052 -0.98713,-1.82686 -1.19745,-2.84277 -0.25977,-1.28206 -0.0208,-2.43793 1.39219,-3.04696 0.20366,-0.0871 0.43185,-0.13306 0.67373,-0.14337 z m -21.40281,8.79646 c 0.84436,5.98032 -1.43541,11.54788 -2.21203,17.47704 0.18704,-1.42792 -0.50978,-3.34895 -0.62926,-4.81013 -0.13508,-1.65053 -0.16626,-3.30363 0,-4.95416 0.30651,-3.0068 1.54762,-5.08469 2.84129,-7.71275 z m 4.66781,0.0333 c 1.28848,2.62295 2.53061,4.70212 2.83713,7.70891 0.16834,1.64543 0.13507,3.30593 0,4.95392 -0.11634,1.45861 -0.81609,3.37964 -0.62906,4.8101 -0.77412,-5.92914 -3.05245,-11.49006 -2.20807,-17.47293 z m -281.074772,7.06917 1.932094,268.01225 c -7.795071,5.68478 -45.682697,34.3673 -18.862035,36.18954 7.898355,1.55611 15.675756,-21.07596 18.894452,-31.74716 l 0.30841,42.62688 c -5.795863,4.27273 -28.156523,21.57779 -11.66528,22.69889 5.186945,1.0223 10.211789,-14.18235 12.087564,-20.53987 l 1.781838,0 0,-0.0437 c 1.858733,6.31299 6.894169,21.60975 12.099819,20.58389 17.22299,-1.17058 -7.6764,-19.80528 -12.079452,-22.99864 l 0.373244,-43.53044 c 2.767728,9.51963 10.837318,34.60603 19.239638,32.95061 27.44184,-1.86445 -12.72993,-31.75379 -19.211174,-36.44132 l 2.281227,-267.76045 -7.180345,0 z m 551.904682,1.85526 1.93624,268.01224 c -7.78593,5.67787 -45.69143,34.36884 -18.86618,36.19363 7.90333,1.55509 15.68385,-21.1008 18.8986,-31.76325 l 0.3084,42.63889 c -5.78296,4.26198 -28.16857,21.58136 -11.66944,22.70298 5.18841,1.02256 10.21327,-14.1903 12.08758,-20.54395 l 1.78183,0 0,-0.0409 c 1.85768,6.31298 6.89044,21.60976 12.09567,20.58386 17.22298,-1.17072 -7.67267,-19.80542 -12.0753,-22.99878 l 0.37344,-43.53071 c 2.769,9.52477 10.83879,34.60375 19.23944,32.95089 27.44183,-1.86677 -12.72992,-31.75763 -19.21117,-36.44542 l 2.28519,-267.76045 -7.1843,0 z m -11.38139,365.70929 c -0.2016,0 -0.40589,0 -0.60872,0.0435 -16.49913,1.12136 5.88668,18.4405 11.66944,22.70272 l -0.3084,42.63891 c -3.21412,-10.663 -10.99527,-33.31834 -18.89861,-31.76328 -26.82524,1.82482 11.08068,30.51553 18.86619,36.19362 l -1.93625,268.01241 7.1843,0 -2.28519,-267.76059 c 6.48145,-4.68779 46.65301,-34.57866 19.21118,-36.44544 -8.4023,-1.65333 -16.4717,23.43407 -19.23944,32.95475 l -0.37345,-43.53457 c 4.40992,-3.19871 29.29516,-21.82804 12.0753,-22.99853 -5.20543,-1.02615 -10.23713,14.27038 -12.09566,20.58364 l 0,-0.0435 -1.78183,0 c -1.80221,-6.10878 -6.49933,-20.34641 -11.47886,-20.58362 z m -551.904684,1.85808 c -0.201583,0 -0.405869,0 -0.6087,0.0435 -16.499347,1.12158 5.88667,18.44072 11.669432,22.70294 l -0.308399,42.63485 c -3.214123,-10.66276 -10.995273,-33.31634 -18.898616,-31.75921 -26.825233,1.82249 11.080684,30.51141 18.865989,36.18928 l -1.936048,268.01263 7.184299,0 -2.285181,-267.76058 c 6.48145,-4.68805 46.653018,-34.57713 19.211178,-36.44133 -8.40065,-1.65516 -16.470047,23.42177 -19.239641,32.94655 l -0.373245,-43.52638 c 4.409703,-3.19872 29.299116,-21.8283 12.079456,-22.99877 -5.205443,-1.0259 -10.241299,14.27061 -12.099823,20.58361 l 0,-0.0435 -1.781837,0 C 89.445315,562.84644 84.747989,548.60881 79.768656,548.37161 Z M 283.87756,869.06721 c -2.44623,-0.0742 -4.91323,0.0717 -7.35884,0.43171 -0.97157,0.14338 -1.9296,0.33727 -2.87788,0.55991 -7.43722,1.24365 -14.87568,4.89249 -20.67632,8.66443 -10.68189,6.95016 -19.43417,16.75308 -31.60713,21.32341 -5.59302,2.09837 -12.41531,3.20052 -17.6808,-0.27175 -4.95128,-3.26526 -7.67849,-10.56525 -7.22898,-16.23363 0.48048,-6.075 6.18864,-10.57343 12.26213,-10.07186 4.52776,0.37104 8.14753,3.96973 9.99712,7.82073 1.2652,2.64086 1.65403,5.76486 0.56818,8.52061 -1.56114,3.94594 -6.26303,5.1914 -10.00128,3.69465 -4.88622,-1.95505 -6.61153,-11.85751 0.60497,-11.20753 1.35851,0.12275 2.89678,0.43272 3.6813,1.67126 1.18456,1.87573 0.56859,3.97333 -1.21345,5.19396 -0.0233,0.0255 -0.0603,-0.0255 -0.0332,-0.0358 1.36911,-1.14642 1.53557,-4.08566 -0.18705,-5.09389 l -0.0332,-0.0255 c 1.16107,2.38496 0.0374,5.6405 -3.06866,6.02944 2.50942,1.63263 7.15479,0.25718 7.15999,-3.52268 0,-4.93882 -8.82149,-6.42329 -10.93065,-2.28287 -1.86559,3.66702 0.0665,8.11247 3.86398,9.67626 3.59797,1.47626 7.4532,0.61518 9.84312,-2.46326 4.33031,-5.57345 -0.40981,-14.05518 -5.53255,-17.24085 -7.88152,-4.90069 -17.41479,1.42075 -18.37075,9.83979 -0.84436,7.38007 3.73803,16.29988 10.80905,19.14033 8.37511,3.37045 19.052,-1.69786 25.98545,-6.08138 8.59331,-5.43526 15.4723,-13.14289 24.13045,-18.45277 1.38719,-0.85213 2.8149,-1.65053 4.26195,-2.40288 -3.28873,2.43359 -6.17638,5.41094 -8.48317,8.83256 -6.62422,9.82135 -7.67974,22.86673 -5.21187,34.13799 2.55366,11.65204 9.92478,22.43838 19.58045,29.55233 4.79814,3.53138 10.20746,5.98851 15.89899,7.5569 -3.22638,-0.61928 -6.41308,-1.38133 -9.53036,-2.25908 -12.40679,-3.49299 -23.7803,-9.45309 -34.14007,-16.96111 -18.86202,-13.67261 -37.78911,-31.5189 -62.60535,-32.24308 -1.38199,-0.0358 -2.78956,0 -4.21312,0.0998 -8.61927,-0.45834 -17.85722,2.96481 -25.30752,6.15331 -6.35406,2.71251 -12.30536,5.82115 -18.21261,9.38835 -6.11776,3.6926 -12.33071,7.46709 -19.20702,9.63199 -6.10987,1.9269 -11.820725,1.52361 -17.400657,-1.70325 -5.065582,-2.93259 -8.942022,-7.89649 -10.435615,-13.49042 -2.860207,-10.70445 6.94488,-21.89764 18.086666,-17.4092 6.044816,2.43614 8.486276,10.06803 4.826176,15.47769 -2.47824,3.6619 -8.459049,4.19417 -11.641175,1.24366 -1.291174,-1.20271 -1.596049,-4.30777 -0.284089,-5.52583 1.652159,-1.53795 4.478911,-0.34983 6.149359,0.52765 -1.566537,-0.34801 -3.645762,-1.05251 -4.895174,0.29581 2.774387,2.26726 6.141042,0.27126 8.637359,1.98346 -1.924815,-1.31813 -2.663815,-3.51526 -5.227883,-4.17035 -2.504216,-0.63974 -4.350059,0.63128 -5.913901,2.47887 0.02601,-0.0255 0.04992,-0.0255 0.07278,-0.0384 -0.141321,0.40432 -0.21872,0.88004 -0.21119,1.42766 0.0603,3.71281 4.346945,5.30731 7.492898,5.18166 8.829606,-0.34801 10.088976,-12.5034 4.371466,-17.34498 -6.073493,-5.13842 -15.227075,-3.63042 -19.75503,2.67488 -6.187801,8.61352 -2.198306,19.37351 5.114412,25.86588 4.969365,4.40885 11.708296,6.72114 18.350398,5.5696 8.88695,-1.5354 16.90169,-6.77514 24.49994,-11.26358 5.75658,-3.40574 11.58133,-6.48418 17.61596,-9.2402 -11.58069,7.23423 -19.73529,18.97939 -16.89337,33.0668 1.87036,9.28628 8.87115,18.38292 18.57379,20.32774 7.73606,1.55587 16.07166,-1.36598 21.77629,-6.54535 5.69942,-5.17424 7.99145,-13.19611 4.72869,-20.29982 -3.58757,-7.82279 -11.73135,-14.04775 -20.78186,-12.67103 -6.59824,0.998 -10.2492,7.14439 -11.42608,13.1068 -0.70658,3.57234 0.45554,7.44969 4.18069,8.78036 4.29665,1.5331 10.38137,-0.96856 11.8361,-5.21365 1.39239,-4.05854 -2.11164,-8.14522 -6.51469,-7.96098 1.94829,1.57378 0.46115,3.60075 0.84831,5.60185 0.21042,1.08502 0.98298,2.01853 1.4246,2.99095 0.10393,-0.1126 0.1995,-0.23287 0.2924,-0.37208 1.09874,-1.62496 1.53432,-3.70949 0.20781,-5.3498 -0.0235,-0.0333 0.0208,-0.0664 0.0395,-0.046 1.96388,1.4865 2.04349,4.30292 1.01478,6.36545 -1.67044,3.34434 -4.84924,4.33234 -8.36137,3.29851 -3.36667,-0.99517 -4.43922,-4.20463 -3.98202,-7.36497 0.72737,-5.05653 3.7902,-10.30908 8.76745,-12.19504 10.03765,-3.80521 20.57654,5.85031 22.69359,14.92188 2.08858,8.96665 -4.78753,16.82551 -12.53395,20.37992 -8.71031,4.0099 -19.13263,2.56027 -25.49437,-4.76608 -9.03491,-10.40223 -7.97005,-24.93976 0.61286,-35.09377 8.1361,-9.6297 21.06949,-14.79087 33.62444,-14.74226 12.18586,0.0512 23.36587,5.60364 33.16972,12.27514 9.95201,6.7836 18.73402,15.07389 28.06778,22.62287 10.3207,8.34994 21.7368,14.80725 34.26577,19.38041 23.01324,8.39855 50.54318,8.38268 70.8003,-5.82986 -0.34539,0.32242 -0.68455,0.64895 -1.04304,0.96371 -9.77267,8.53162 -23.32411,13.44459 -36.21407,14.61403 -15.4644,1.40488 -30.99387,-4.74331 -45.20867,-9.91985 -7.19844,-2.62039 -14.36298,-5.30884 -21.53272,-8.00089 -6.01116,-2.25701 -12.38808,-4.38454 -18.8824,-4.53016 -8.76477,-0.20471 -19.17669,3.74123 -23.32267,11.835 -4.47598,8.74147 -0.79885,18.83252 7.69573,23.56663 7.50994,4.18392 18.6083,1.35241 20.47347,-7.745 1.74047,-8.46741 -7.5328,-15.87819 -15.20899,-11.31144 -4.33054,2.58303 -4.53712,11.58192 1.24191,12.63109 0.54761,0.0972 1.12825,-10e-4 1.7089,-0.17154 -4.39704,1.04713 -6.34554,-4.65759 -5.56476,-7.90468 1.6962,-7.08604 10.5256,-6.91663 14.66909,-2.32328 4.31742,4.78273 3.25235,11.40662 -1.42876,15.42574 -4.60069,3.94953 -11.08236,3.50042 -16.11406,0.6958 -10.95203,-6.10315 -11.52602,-20.59258 -2.23654,-28.32862 10.16483,-8.45998 23.5897,-5.87515 34.93141,-1.69122 13.36005,4.93114 26.33145,10.87103 39.86297,15.36972 12.42756,4.13785 25.41144,6.11311 38.32467,3.12679 11.06905,-2.55897 22.09674,-7.8389 30.20685,-15.78963 3.36667,-3.30364 6.23706,-7.02363 8.9256,-10.88768 3.31222,-3.89477 6.20859,-8.11603 8.9622,-12.45094 2.51917,-3.96871 6.43696,-9.08308 8.97838,-14.19822 2.52542,5.29094 6.64604,10.62332 9.25043,14.72996 2.75629,4.33746 5.64747,8.55774 8.96217,12.45505 2.68876,3.86662 5.55645,7.57609 8.9256,10.8795 8.11014,7.95329 19.13534,13.23218 30.20687,15.79398 12.91322,2.98605 25.89441,1.00951 38.32466,-3.13091 13.5315,-4.49868 26.50291,-10.43883 39.86296,-15.36997 11.34169,-4.18392 24.76367,-6.76311 34.9233,1.69941 9.29219,7.73067 8.72361,22.22137 -2.22845,28.32479 -5.0317,2.80463 -11.51752,3.25016 -16.11799,-0.69578 -4.67862,-4.02272 -5.73954,-10.64458 -1.42481,-15.42987 4.14349,-4.59335 12.97142,-4.75508 14.66514,2.32303 0.78015,3.23712 -1.15194,8.9165 -5.51612,7.92492 0.56484,0.16131 1.12782,0.25333 1.66005,0.15619 5.78005,-1.04662 5.5766,-10.0473 1.24607,-12.62675 -7.67369,-4.57035 -16.95073,2.83714 -15.21295,11.30734 1.86789,9.09715 12.96477,11.93148 20.47743,7.745 8.49457,-4.73156 12.17276,-14.8267 7.69177,-23.57072 -4.14348,-8.09403 -14.55811,-12.03998 -23.32286,-11.83525 -6.49434,0.14844 -12.86689,2.27466 -18.87804,4.53424 -7.17244,2.68947 -14.33595,5.37793 -21.53688,8.00064 -14.21479,5.17704 -29.74031,11.325 -45.20472,9.92011 -12.88993,-1.17456 -26.44532,-6.085 -36.218,-14.61405 -0.35849,-0.3122 -0.69765,-0.64383 -1.04326,-0.96344 20.25464,14.21254 47.79124,14.22559 70.80445,5.82934 12.52626,-4.57033 23.94507,-11.0302 34.26576,-19.38014 9.33377,-7.54898 18.11182,-15.84032 28.06364,-22.61876 9.80654,-6.67663 20.98802,-12.224 33.17388,-12.27517 12.55494,-0.0512 25.48584,5.10594 33.62443,14.73792 8.58041,10.154 9.65048,24.69025 0.61287,35.08991 -6.35926,7.3238 -16.78136,8.77244 -25.49417,4.77021 -7.74643,-3.55697 -14.62794,-11.4156 -12.53417,-20.37994 2.11727,-9.07412 12.65596,-18.7258 22.6936,-14.92599 4.97995,1.89135 8.04009,7.14031 8.76745,12.19914 0.45451,3.15778 -0.61784,6.37082 -3.9818,7.36115 -3.51214,1.03638 -6.69259,0.0512 -8.36553,-3.29876 -1.02352,-2.05742 -0.94911,-4.87613 1.01477,-6.36547 0.029,-0.0255 0.0645,0.0255 0.0435,0.046 -1.32733,1.64132 -0.89444,3.72664 0.20782,5.35415 0.0915,0.13813 0.18912,0.25589 0.28825,0.3677 0.44681,-0.96728 1.21844,-1.90309 1.42876,-2.99092 0.38715,-1.996 -1.10144,-4.02909 0.84435,-5.5975 -4.40055,-0.1869 -7.90956,3.89553 -6.5147,7.95662 1.45473,4.25046 7.5378,6.75339 11.83196,5.218 3.72763,-1.33322 4.89537,-5.20828 4.1888,-8.7806 -1.17688,-5.96241 -4.83034,-12.10752 -11.42608,-13.11065 -9.05051,-1.37161 -17.19431,4.85206 -20.78187,12.67512 -3.26276,7.10372 -0.97321,15.12149 4.7287,20.29574 5.70463,5.18192 14.03629,8.10501 21.77233,6.54916 9.70513,-1.94711 16.70488,-11.04119 18.57775,-20.32771 2.83943,-14.08716 -5.31268,-25.82851 -16.89337,-33.06272 6.03713,2.75602 11.85688,5.83138 17.61594,9.23226 7.59848,4.49356 15.60907,9.72949 24.4958,11.26744 6.64501,1.15153 13.38373,-1.1582 18.3506,-5.56986 7.31251,-6.48956 11.30346,-17.25339 5.11836,-25.86946 -4.52795,-6.30018 -13.68818,-7.81177 -19.75899,-2.67106 -5.71771,4.84158 -4.45832,16.99442 4.37148,17.34525 3.14325,0.12521 7.43969,-1.47296 7.49684,-5.18602 0,-0.54762 -0.0748,-1.01899 -0.21508,-1.4233 0.0259,0.0255 0.052,0.0255 0.0769,0.0358 -1.56383,-1.84758 -3.41113,-3.1135 -5.91804,-2.47887 -2.56137,0.65739 -3.30141,2.85247 -5.22373,4.17011 2.49902,-1.7066 5.86151,0.28429 8.63341,-1.98297 -1.24962,-1.34882 -3.32198,-0.64255 -4.89102,-0.29196 1.67024,-0.87774 4.49304,-2.06816 6.14521,-0.52767 1.31175,1.21807 1.00687,4.31751 -0.2841,5.51766 -3.18232,2.95306 -9.16293,2.42387 -11.64117,-1.23548 -3.6628,-5.40967 -1.21885,-13.0418 4.82617,-15.47796 11.14158,-4.48843 20.94938,6.70349 18.08667,17.40513 -1.49379,5.59136 -5.36857,10.55808 -10.43144,13.49065 -5.58515,3.22944 -11.29621,3.63399 -17.40089,1.70736 -6.87609,-2.17001 -13.09194,-5.93965 -19.207,-9.63225 -5.90974,-3.56465 -11.85835,-6.67712 -18.2124,-9.39219 -7.45301,-3.18591 -16.68845,-6.60112 -25.30774,-6.14562 -1.42356,-0.10476 -2.82863,-0.13553 -4.21312,-0.0997 -24.81354,0.72265 -43.74333,18.56662 -62.60537,32.23923 -10.35975,7.50546 -21.73575,13.46967 -34.14003,16.96523 -3.11978,0.87518 -6.30543,1.64236 -9.5343,2.25906 5.69153,-1.5712 11.10479,-4.02707 15.9029,-7.56073 9.65568,-7.11396 17.02678,-17.90133 19.58047,-29.55232 2.46784,-11.26974 1.40839,-24.32229 -5.21584,-34.13852 -2.30677,-3.42109 -5.19048,-6.39615 -8.4792,-8.8323 1.44704,0.75234 2.8708,1.54691 4.25799,2.39904 8.65815,5.31243 15.53859,13.02006 24.1344,18.45251 6.93346,4.38378 17.60889,9.45466 25.9815,6.0896 7.07352,-2.84559 11.65592,-11.76822 10.80906,-19.1483 -0.95596,-8.41647 -10.48384,-14.73406 -18.36286,-9.83617 -5.12272,3.18616 -9.87222,11.66916 -5.5444,17.24544 2.3951,3.07587 6.25016,3.93133 9.84291,2.45479 3.80308,-1.56097 5.73331,-6.00768 3.86814,-9.67214 -2.10667,-4.13786 -10.93438,-2.65571 -10.92669,2.28313 0,3.77703 4.64808,5.15787 7.15998,3.52268 -3.1121,-0.38897 -4.23223,-3.64169 -3.06845,-6.02563 -0.0208,0 -0.0233,0 -0.0332,0.0255 -1.72489,1.00823 -1.55822,3.94364 -0.18703,5.09006 0.0259,0.0255 -0.0208,0.0589 -0.0374,0.046 -1.78205,-1.22064 -2.39552,-3.32464 -1.21367,-5.1978 0.78451,-1.24367 2.32696,-1.55126 3.68566,-1.67152 7.21651,-0.65254 5.4937,9.24736 0.60477,11.20753 -3.73554,1.497 -8.44409,0.25333 -10.00545,-3.69055 -1.08584,-2.75859 -0.69535,-5.88769 0.57235,-8.52857 1.84709,-3.85123 5.46687,-7.44736 9.99733,-7.82098 6.07349,-0.5041 11.77729,3.99712 12.25797,10.07214 0.452,5.67068 -2.27769,12.96707 -7.22898,16.23744 -5.26299,3.47254 -12.08382,2.36886 -17.67684,0.26794 -12.17298,-4.56777 -20.92673,-14.36686 -31.61109,-21.31932 -5.79814,-3.77194 -13.23494,-7.42002 -20.67235,-8.66879 -0.95078,-0.22007 -1.90777,-0.41379 -2.88181,-0.55991 -9.78308,-1.43814 -19.86435,0.54377 -27.88097,6.39359 -8.63757,6.30532 -14.47665,17.79845 -14.20648,28.42076 0.27807,10.81678 6.98126,19.516 16.97463,23.67459 7.90751,3.29085 18.5023,4.31751 25.36033,-1.80356 6.64769,-5.92377 8.47463,-16.52612 6.09262,-24.80184 -2.32238,-8.06078 -9.10537,-13.55028 -17.80259,-10.60003 -4.69669,1.5968 -10.07318,4.92602 -11.76691,9.81622 -1.44184,4.1609 0.0233,9.62738 3.8885,12.13517 4.59529,2.98377 15.19216,2.37115 16.48335,-4.28219 1.2677,-6.50262 -6.23124,-9.42572 -11.60853,-8.34072 2.8548,0.45038 2.54576,4.72847 3.05223,6.57323 0.68331,2.4771 3.96891,4.15911 3.98179,0.30785 0,-1.7964 -1.42085,-3.47047 -2.53268,-4.74996 -0.0208,-0.0255 0,-0.0666 0.0415,-0.0563 2.92256,1.78361 5.08471,5.86285 2.29745,8.67261 -2.55887,2.57688 -7.07457,3.08997 -10.22053,1.27538 -2.67046,-1.53537 -4.75988,-4.95058 -4.66366,-8.0367 0.10184,-3.3932 2.06156,-6.27127 4.71645,-8.3287 4.20563,-3.27035 10.87224,-6.10826 16.05732,-3.26268 4.00301,2.19816 6.13169,6.52078 6.94487,10.82778 1.77935,9.4375 -1.4489,21.83164 -11.93335,24.75398 -9.59874,2.67925 -21.57656,-1.4407 -27.91753,-8.92826 -8.70511,-10.26942 -6.02239,-25.2105 1.63574,-35.32587 6.45526,-8.51626 17.11116,-13.06509 27.82421,-12.64313 10.79099,0.42762 21.47849,5.46801 27.51562,14.50631 7.0995,10.63766 8.0299,24.35607 3.51504,36.1376 -4.33572,11.31579 -13.34777,21.63255 -25.08434,25.85765 -23.16139,8.33203 -49.30913,-2.12087 -68.10113,-15.59387 -5.656,-4.05059 -14.90103,-16.02942 -23.4324,-15.48973 10e-4,0 0,-0.0255 0,-0.0255 -9.18558,-3.60049 -19.75461,10.51764 -25.98128,14.97792 -18.7895,13.473 -44.93994,23.92412 -68.10135,15.58978 -11.73386,-4.22232 -20.75008,-14.54597 -25.08829,-25.86175 -4.51237,-11.78151 -3.58321,-25.49584 3.51899,-36.1335 6.03465,-9.03574 16.72215,-14.07766 27.51584,-14.51013 10.71036,-0.41712 21.36458,4.13196 27.82006,12.65105 7.6581,10.11024 10.34874,25.05236 1.64385,35.32176 -6.34368,7.48476 -18.32567,11.6129 -27.92168,8.93622 -10.48447,-2.92748 -13.71419,-15.32188 -11.93733,-24.76194 0.8132,-4.30674 2.94189,-8.63089 6.94489,-10.83163 5.18508,-2.84813 11.85564,-0.001 16.06127,3.26655 2.65487,2.06023 4.61253,4.93957 4.71664,8.33279 0.0935,3.08354 -1.99068,6.49492 -4.66386,8.03287 -3.14575,1.81176 -7.66165,1.29997 -10.22052,-1.27948 -2.78727,-2.80719 -0.62492,-6.88364 2.29744,-8.66468 0.0312,-0.0255 0.0603,0.0255 0.0374,0.0512 -1.11184,1.27949 -2.53913,2.95356 -2.52874,4.74997 0.0208,3.85381 3.29455,2.17205 3.97786,-0.30786 0.50645,-1.84475 0.19534,-6.12669 3.05223,-6.57707 -5.37731,-1.08501 -12.87375,1.84375 -11.60855,8.34866 1.29617,6.6505 11.88952,7.2593 16.4875,4.27809 3.86543,-2.5078 5.32599,-7.97939 3.88435,-12.13517 -1.69124,-4.89276 -7.06625,-8.21662 -11.76295,-9.81598 -8.69452,-2.95049 -15.48271,2.53901 -17.8026,10.59979 -2.38203,8.27291 -0.55655,18.87295 6.08847,24.80184 6.86073,6.11595 17.45241,5.09442 25.36053,1.80356 9.99339,-4.15859 16.69658,-12.85782 16.97443,-23.67459 0.27017,-10.62231 -5.56622,-22.11134 -14.20629,-28.41666 -6.0124,-4.3894 -13.1836,-6.60216 -20.52207,-6.8253 z m 244.38583,110.76367 c -0.28617,-0.0818 -0.574,-0.15352 -0.85643,-0.28404 0.19743,0.0871 0.39403,0.17401 0.61286,0.23543 0.0853,0.0255 0.16003,0.028 0.24367,0.0488 z m -319.35082,-0.54786 c 0.0665,-0.0255 0.12681,-0.0255 0.19535,-0.0358 0.2203,-0.0614 0.42271,-0.14598 0.62096,-0.23289 -0.26932,0.12552 -0.54261,0.18938 -0.81588,0.26793 z M 371.53487,871.1382 c -0.1912,0.0488 -0.35871,0.22008 -0.36142,0.46394 -0.0415,4.17623 -1.1035,8.26524 -1.77372,12.37495 -0.3454,2.10859 -0.33272,4.14298 -0.23121,6.26949 0.029,0.59368 -0.0208,1.17993 -0.11008,1.76337 -0.33126,2.10887 -1.29804,4.13864 -1.77395,6.20551 -0.4761,-2.05587 -1.42958,-4.0795 -1.76147,-6.1776 -0.0893,-0.58344 -0.13304,-1.17228 -0.11008,-1.77107 0.10603,-2.12165 0.1143,-4.15296 -0.23146,-6.26155 -0.67022,-4.11227 -1.73216,-8.19768 -1.77374,-12.37905 0,-0.48108 -0.66481,-0.68733 -0.86058,-0.19693 -1.30405,3.27779 -2.35646,6.52411 -2.1877,10.07596 0.0435,0.91099 0.94308,4.25865 -1.23382,3.34254 -1.50939,-0.63974 -2.51107,-2.29363 -4.06721,-2.86683 -3.42112,-1.25391 -7.26577,-0.81223 -10.65073,0.25975 -3.54849,1.12363 -5.42779,2.88089 -7.30606,6.06169 -3.01856,5.10772 -2.81345,11.3598 1.45723,15.65376 4.03417,4.05597 11.18875,3.1675 15.72439,0.59573 2.07548,-1.17201 4.25467,-4.23766 3.82344,-6.65333 -0.452,-2.54107 -2.88016,-4.42038 -5.04937,-5.56168 -0.85973,-0.45806 -2.786,-0.64052 -3.27958,-1.52361 -0.77142,-1.37394 2.12307,-2.41645 3.06865,-2.71073 2.36643,-0.73699 5.45316,0.74773 7.25328,2.0912 1.13533,0.84444 2.15883,1.83272 3.15385,2.83072 1.74298,1.75829 2.91446,3.16495 3.98993,5.42195 0.0233,0.0488 0.0872,0.0255 0.0893,-0.0255 l 0,0 0,0 0,0 0,0 c 1.07422,-2.25703 2.24382,-3.6601 3.98992,-5.41761 0.99503,-0.99901 2.01189,-1.98398 3.1497,-2.831 1.80282,-1.33834 4.88956,-2.82562 7.25349,-2.09092 0.94288,0.294 3.84007,1.33783 3.06844,2.71455 -0.49357,0.87798 -2.41714,1.06659 -3.27958,1.51951 -2.16901,1.14643 -4.59467,3.02087 -5.04936,5.56169 -0.43373,2.42358 1.74795,5.48131 3.82363,6.65334 4.54085,2.57433 11.69418,3.4628 15.72835,-0.59575 4.27067,-4.28883 4.47163,-10.54322 1.45307,-15.65375 -1.87287,-3.17544 -3.76007,-4.93678 -7.30608,-6.0576 -3.38473,-1.06966 -7.22793,-1.51774 -10.64655,-0.26383 -1.55863,0.5732 -2.56199,2.23117 -4.07116,2.87091 -2.17691,0.91868 -1.27808,-2.43767 -1.23404,-3.34254 0.16834,-3.55543 -0.88612,-6.79816 -2.18769,-10.07596 -0.0956,-0.2431 -0.30841,-0.31756 -0.49918,-0.26792 z m 0.30444,2.80312 c -0.18911,1.4279 0.50812,3.34865 0.62491,4.81009 0.13508,1.64516 0.16626,3.30594 0,4.95392 -0.30652,3.0068 -1.5445,5.0834 -2.83298,7.7089 -0.84686,-5.98289 1.43395,-11.54378 2.20807,-17.47291 z m -9.09207,0.0283 c 0.77414,5.92915 3.05371,11.4926 2.21203,17.4732 -1.29367,-2.62551 -2.53477,-4.70238 -2.84129,-7.70894 -0.16833,-1.64797 -0.13508,-3.30772 0,-4.95799 0.11852,-1.45862 0.81631,-3.37579 0.62926,-4.80627 z m -207.08403,2.81898 c -4.57201,4.079 -5.10091,11.64538 -2.73177,16.97317 2.70434,6.07499 7.67764,7.23882 13.73556,7.31302 -0.88843,-0.39919 -1.75315,-0.83626 -2.58962,-1.32758 -5.65787,-3.29597 -9.09166,-8.40215 -10.60603,-14.64605 0,-0.0334 0.0415,-0.0409 0.0519,-0.0255 1.88846,6.0494 7.05441,10.69061 12.76943,13.31844 0.69888,0.32242 1.40983,0.62054 2.12682,0.89178 -0.31174,-0.22519 -0.61701,-0.46393 -0.91316,-0.72778 -2.36914,-2.11087 -3.4153,-5.15503 -5.59739,-7.48882 -2.69895,-2.87884 -5.28608,-3.13628 -6.29129,-7.38929 -0.53514,-2.26956 -0.82566,-5.01405 0.0457,-6.90514 z m 425.80488,0.53175 c 0.86763,1.88852 0.57835,4.63942 0.0415,6.90923 -1.00271,4.25046 -3.59089,4.50892 -6.28734,7.38521 -2.18479,2.33608 -3.2322,5.37664 -5.60134,7.49266 -0.29365,0.26102 -0.59747,0.50129 -0.9092,0.72368 0.71697,-0.27124 1.42668,-0.56911 2.12287,-0.89155 5.71501,-2.62806 10.88075,-7.26927 12.7694,-13.31869 0.0208,-0.0308 0.0603,-0.0255 0.052,0 -1.5146,6.249 -4.94422,11.3465 -10.60209,14.65039 -0.83897,0.48849 -1.70368,0.92813 -2.58963,1.32732 6.05543,-0.0689 11.02977,-1.23929 13.73142,-7.31713 2.37183,-5.32778 1.83919,-12.89542 -2.72762,-16.9693 z m -195.21136,5.76589 c 0.82047,0.0308 1.66172,0.13305 2.52042,0.3196 8.40108,1.83505 14.63751,14.93981 5.98706,20.6719 -3.46537,2.30027 -8.15251,2.549 -12.00236,0.96756 -3.35109,-1.37416 -7.72732,-4.78632 -5.17115,-8.82436 1.49629,-2.36449 3.95043,-4.32774 6.89624,-4.45058 2.33526,-0.0997 0.20784,3.08715 -0.4547,4.0826 -0.71427,1.07989 -2.47533,2.57074 -1.65195,3.97024 0.52993,0.90075 1.93023,1.40871 2.92256,1.53155 4.64725,0.57065 6.82684,-3.79778 4.80581,-7.71301 -0.42355,-0.82629 -1.10436,-1.59551 -1.95641,-2.01519 -1.40798,-0.69092 -1.76875,-1.17458 -2.74799,-2.36706 -0.74045,-0.90331 -1.60871,-1.62341 -2.74382,-1.97911 -3.68878,-1.16433 -7.47961,0.89487 -10.53704,3.46639 3.60046,-4.43111 8.38903,-7.87191 14.13333,-7.66053 z m -37.93106,0.0283 c 5.74433,-0.20983 10.53287,3.23019 14.13334,7.65698 -3.05494,-2.56665 -6.8468,-4.62843 -10.53308,-3.46665 -1.13781,0.36056 -2.00899,1.08322 -2.75194,1.98296 -0.97925,1.19094 -1.33856,1.67868 -2.74383,2.36729 -0.84955,0.41686 -1.52789,1.18712 -1.95642,2.01111 -2.01582,3.91779 0.15382,8.28621 4.80581,7.713 0.99235,-0.12275 2.39513,-0.6267 2.92236,-1.52745 0.82088,-1.40488 -0.93498,-2.8942 -1.65196,-3.96641 -0.6623,-0.99544 -2.79246,-4.18751 -0.45449,-4.09025 2.95102,0.12275 5.4012,2.08555 6.9002,4.45004 2.55346,4.03806 -1.82423,7.45428 -5.17531,8.82847 -3.84715,1.58401 -8.53574,1.32887 -12.00631,-0.97138 -8.64796,-5.72982 -2.40737,-18.83816 5.991,-20.66782 0.85892,-0.18692 1.69996,-0.2902 2.52063,-0.31989 z m 38.58861,9.67191 c 0.11228,0.0255 0.2369,0.0437 0.37323,0.0972 0.60019,0.23029 1.18893,0.99772 1.66421,1.42764 0.81321,0.73698 1.52061,1.6101 1.51812,2.76677 0,1.8322 -3.15011,3.71997 -4.78148,3.01882 -1.40527,-0.60648 -1.64801,-1.76057 -1.38824,-3.04289 0.21042,-1.01847 0.66875,-1.95478 1.1935,-2.84275 0.38176,-0.64281 0.63302,-1.50008 1.42066,-1.42357 z m -39.24614,0.0255 c 0.78805,-0.0768 1.04096,0.78483 1.42063,1.42739 0.52206,0.88798 0.98965,1.82303 1.19747,2.83893 0.25977,1.27948 0.0208,2.43768 -1.39239,3.04671 -1.63387,0.70117 -4.77215,-1.18787 -4.77735,-3.02265 0,-1.15665 0.69828,-2.02619 1.51398,-2.76318 0.47548,-0.43222 1.07088,-1.19839 1.66837,-1.43125 0.1371,-0.0538 0.25665,-0.0871 0.36929,-0.0972 z M 224.54366,917.8418 c 3.87852,1.85548 6.36507,3.33893 8.97838,6.89336 3.14327,4.2658 6.35116,8.40544 10.12306,12.16714 2.8758,2.86862 6.38669,4.61512 9.68061,6.65719 -0.5584,-0.83424 -1.07775,-1.63238 -1.55052,-2.33099 -4.64725,-6.80943 -10.81946,-12.86114 -16.84869,-18.48063 -0.0291,-0.0255 0,-0.0717 0.0373,-0.046 5.06559,3.81798 10.43791,7.92028 14.81518,12.6508 -1.42874,-2.20483 -2.84253,-4.44468 -4.39598,-6.55327 -2.76397,-3.75657 -5.32535,-7.68102 -10.06611,-9.0964 -3.54331,-1.05431 -7.28633,-1.00694 -10.77249,-1.85908 z m 288.04397,0.5279 c -3.48866,0.85982 -7.23167,0.80787 -10.77249,1.86729 -4.74077,1.41511 -7.30629,5.33315 -10.07028,9.09228 -1.55343,2.10603 -2.96307,4.34514 -4.39182,6.55328 4.37977,-4.73128 9.74565,-8.83025 14.81124,-12.65081 0.029,-0.0255 0.0706,0.0255 0.0435,0.0488 -6.03193,5.61439 -12.21225,11.67124 -16.857,18.48038 -0.47528,0.69606 -0.9892,1.49421 -1.55032,2.33124 3.29392,-2.04207 6.80897,-3.78882 9.68455,-6.65744 3.77191,-3.76168 6.9798,-7.90005 10.12307,-12.17123 2.61331,-3.54673 5.10006,-5.03275 8.97837,-6.89311 z m -385.08967,8.69669 c -5.65786,5.16912 -13.24201,9.25325 -20.85087,10.8114 -9.112845,1.86574 -20.231979,1.28665 -28.562804,5.86977 3.753621,-1.89364 9.879284,-0.54582 13.739518,0.65178 5.738496,1.78361 10.635526,4.18289 16.763476,4.17034 6.70736,-0.0255 11.66945,-2.80488 15.20485,-8.35273 2.11727,-3.32666 3.285,-7.0968 5.06975,-10.5719 -3.03416,3.89247 -5.805,7.97455 -10.23675,10.4721 -8.10222,4.54987 -18.09663,4.96543 -27.004156,2.78287 -0.03534,-0.0255 -0.02077,-0.0666 0.02076,-0.0589 8.918116,1.67589 19.935836,0.96193 27.264146,-4.89812 3.77192,-3.00935 5.77197,-7.1549 8.60079,-10.87566 z m 482.13122,0.53149 c 2.83152,3.71844 4.83052,7.86525 8.60513,10.87972 7.32562,5.86006 18.34708,6.56889 27.25979,4.8902 0.0353,0 0.0498,0.0563 0.0208,0.0639 -8.91021,2.1828 -18.90463,1.7721 -27.00436,-2.78287 -4.43424,-2.49245 -7.20507,-6.57554 -10.23673,-10.46775 1.78475,3.46997 2.95393,7.24344 5.07368,10.56779 3.53563,5.55016 8.49354,8.32818 15.20089,8.34866 6.12796,0.0255 11.02499,-2.38803 16.76349,-4.16651 3.86273,-1.20274 9.98589,-2.5467 13.73952,-0.65562 -8.32834,-4.58056 -19.446,-3.9961 -28.55885,-5.86185 -7.61138,-1.55815 -15.20112,-5.64893 -20.85897,-10.8155 z m -405.34368,2.02749 c -3.38849,0.0792 -6.96775,0.75539 -9.47779,1.99496 -3.75631,1.85014 -9.98317,7.1554 -9.45324,11.87928 0.0645,-8.37553 16.76035,-3.57695 21.00506,-4.7899 2.48343,-0.71651 4.11064,-1.8683 6.29546,-2.27544 -0.68852,-0.18424 -1.38055,-0.36926 -2.07426,-0.53559 -6.43697,-1.54562 -12.90554,-1.51799 -19.12969,0.87952 -0.0395,0.0255 -0.0623,-0.0384 -0.0259,-0.0589 5.76427,-3.08332 12.2908,-4.10487 18.79284,-3.37069 2.64448,0.29964 5.19378,0.8547 7.7161,1.62751 -2.01834,-1.77337 -3.96623,-3.49607 -6.70944,-4.45825 -0.42083,-0.14844 -0.85933,-0.2779 -1.31923,-0.38769 -1.62286,-0.38589 -3.58861,-0.55172 -5.62149,-0.50384 z m 328.56049,0.53148 c -2.03309,-0.046 -3.99781,0.11767 -5.6217,0.50386 -0.45989,0.10999 -0.8984,0.24055 -1.31923,0.38386 -2.74321,0.96728 -4.69089,2.68487 -6.70942,4.45825 2.52499,-0.77281 5.06641,-1.32249 7.71609,-1.61933 6.49954,-0.73698 13.02858,0.28559 18.79305,3.36659 0.0395,0.0255 0,0.0689 -0.029,0.0563 -6.22418,-2.39752 -12.69003,-2.42233 -19.12993,-0.87159 -0.69099,0.16376 -1.38053,0.34239 -2.07402,0.53175 2.18729,0.40944 3.81077,1.56122 6.29939,2.27517 4.23951,1.21552 20.93608,-3.58793 21.00112,4.79016 0.52995,-4.72642 -5.69547,-10.02555 -9.44931,-11.88336 -2.51169,-1.23627 -6.08929,-1.91105 -9.47757,-1.99115 z M 209.2293,970.43263 c -0.28701,-0.0255 -0.57524,-0.0255 -0.86059,0.0255 -0.32628,0.0334 -0.64715,0.0972 -0.95783,0.1996 1.35331,-0.44015 4.00029,2.93053 4.33904,3.88247 0.53452,1.50109 0.0853,2.94153 -1.03513,3.87429 1.58191,-1.09142 2.81634,-2.82203 2.65446,-4.46183 -0.20159,-2.04181 -2.13118,-3.36249 -4.13995,-3.50681 z m 318.55112,0.53967 c -1.96306,0.19182 -3.81971,1.50084 -4.01839,3.50272 -0.16209,1.63495 1.06591,3.3584 2.64242,4.45032 -1.11349,-0.93326 -1.5601,-2.37192 -1.02704,-3.87045 0.33771,-0.95194 2.98967,-4.32416 4.3432,-3.88657 -0.62096,-0.1996 -1.28597,-0.25974 -1.94019,-0.19694 z m -228.68596,9.86819 c -5.4889,1.15153 -10.59709,1.89057 -15.71212,5.81372 -5.56953,4.27349 -10.74153,11.94149 -10.39093,19.22429 -0.21822,-6.02891 13.58448,-8.70995 17.03945,-12.8069 2.33547,-2.76881 4.50988,-5.67963 7.37508,-7.90082 -1.35082,0.28917 -2.68751,0.62286 -4.00196,1.01949 -6.27882,1.90131 -12.19189,5.70753 -15.86239,11.15556 -0.0582,0.0899 -0.19118,0.0258 -0.14132,-0.0765 3.30681,-5.9954 9.14776,-10.03627 15.06269,-13.30663 2.13284,-1.17713 4.35422,-2.22171 6.63233,-3.12248 z m 138.94239,0.53175 c 2.2756,0.89819 4.49946,1.94328 6.6323,3.12271 5.92013,3.26808 11.75838,7.31251 15.0627,13.31072 0.0498,0.0868 -0.0873,0.15621 -0.14132,0.0713 -3.67321,-5.4506 -9.58793,-9.25246 -15.86655,-11.15122 -1.31195,-0.3969 -2.64989,-0.7357 -3.99801,-1.01977 2.86519,2.21351 5.03711,5.13204 7.37506,7.90085 3.45499,4.09182 17.25623,6.77127 17.03552,12.80287 0.35331,-7.28545 -4.81744,-14.95088 -10.38698,-19.22436 -5.11483,-3.92546 -10.22322,-4.6622 -15.71214,-5.81374 z m -114.41001,6.93738 c -6.27571,-0.0818 -12.4126,1.65539 -16.83643,6.10544 -9.37782,9.42724 -9.81486,23.14614 -3.19853,34.36214 4.11479,6.9681 8.25039,10.8317 16.04109,13.2908 7.42433,2.3491 15.85055,3.3211 23.36319,0.5676 3.41861,-1.2539 5.61776,-4.8856 8.92977,-6.2853 4.77214,-2.0191 2.80762,5.3331 2.7114,7.3291 -0.37408,7.7969 1.93604,14.9165 4.79355,22.115 0.42935,1.0673 1.88012,0.6263 1.89573,-0.428 0.0935,-9.1787 2.41816,-18.1441 3.8885,-27.1568 0.75853,-4.6294 0.73317,-9.0997 0.50727,-13.7547 -0.0603,-1.3052 0.0374,-2.599 0.23536,-3.8785 0.73194,-4.6007 2.81926,-9.0459 3.87228,-13.5625 1.04346,4.5363 3.16466,8.992 3.89245,13.6145 0.20366,1.2846 0.29884,2.5774 0.23119,3.8825 -0.2208,4.6624 -0.24054,9.1253 0.5075,13.7545 1.48071,9.0204 3.80162,17.9845 3.89244,27.1533 0.0208,1.0645 1.47073,1.501 1.89156,0.4238 2.86,-7.1882 5.17178,-14.306 4.7977,-22.1032 -0.0913,-1.9935 -2.06322,-9.3561 2.71142,-7.3371 3.30951,1.4049 5.51219,5.0402 8.9256,6.2976 7.50994,2.7527 15.94344,1.7731 23.37544,-0.576 7.78282,-2.4487 11.91675,-6.325 16.02885,-13.2905 6.62173,-11.211 6.1824,-24.9347 -3.19022,-34.35426 -8.85058,-8.90778 -24.55109,-6.95758 -34.51349,-1.30737 -4.55372,2.56922 -9.33272,9.28673 -8.38984,14.59403 0.99752,5.5786 6.32454,9.6957 11.0811,12.2109 1.88843,1.0009 6.1161,1.3987 7.19633,3.3308 1.68895,3.0145 -4.6595,5.3142 -6.73769,5.9617 -5.19026,1.6122 -11.96412,-1.6565 -15.91517,-4.5942 -2.48863,-1.8553 -4.73037,-4.0153 -6.91246,-6.2135 -3.82511,-3.8497 -6.39207,-6.9261 -8.75518,-11.8754 0.001,0 0.001,-0.026 0,-0.026 0.0259,-0.1201 -0.16004,-0.174 -0.21122,-0.064 -2.36394,4.9568 -4.93028,8.0429 -8.75934,11.8993 -2.1821,2.1956 -4.42924,4.3569 -6.92036,6.2096 -3.95376,2.9452 -10.72615,6.2089 -15.91122,4.5941 -2.07818,-0.6448 -8.42374,-2.9392 -6.73791,-5.9537 1.08586,-1.9371 5.30915,-2.3394 7.1926,-3.3346 4.76426,-2.5078 10.09668,-6.6441 11.089,-12.2152 0.94558,-5.3046 -3.84152,-12.02497 -8.39794,-14.59413 -4.98121,-2.82127 -11.39283,-4.72105 -17.66876,-4.80191 z m 0.0686,1.46322 c 0.71778,-0.0255 1.43747,-0.0255 2.15527,0.0255 3.44647,0.14568 6.87299,0.8808 10.04202,2.17922 7.34639,3.01956 16.95073,10.50784 11.34482,19.37224 -3.28354,5.1845 -8.65421,9.4983 -15.12775,9.7719 -5.12794,0.2072 -0.45658,-6.7958 0.99025,-8.9761 1.57173,-2.3593 5.4382,-5.6289 3.63288,-8.7126 -1.16378,-1.9729 -4.24116,-3.0794 -6.40518,-3.3507 -10.21429,-1.25387 -14.98891,8.3333 -10.55718,16.9212 0.93248,1.8144 2.42255,3.5087 4.29021,4.4222 3.0836,1.5201 3.87935,2.5825 6.02756,5.1899 1.62889,1.9806 3.53666,3.5677 6.03569,4.3582 8.08165,2.5515 16.40541,-1.9743 23.10756,-7.6169 -9.02971,11.1035 -21.45873,19.394 -36.53868,16.1055 -18.43601,-4.0125 -32.12606,-32.7828 -13.14702,-45.35757 4.16406,-2.76138 9.12615,-4.17496 14.14955,-4.32236 z m 92.28852,0.0589 c 5.02339,0.14845 9.98444,1.56531 14.14559,4.3262 18.97904,12.57476 5.29584,41.33636 -13.14287,45.35396 -15.07723,3.2857 -27.51062,-4.9974 -36.54283,-16.1136 6.70215,5.6476 15.03007,10.1699 23.11172,7.6212 2.50151,-0.7859 4.40805,-2.3728 6.03151,-4.3585 2.14845,-2.6102 2.94563,-3.6685 6.03174,-5.1858 1.85997,-0.9212 3.35502,-2.6079 4.29021,-4.4224 4.43174,-8.593 -0.33895,-18.17352 -10.55324,-16.9171 -2.1665,0.2687 -5.24784,1.3768 -6.40914,3.3546 -1.80281,3.0707 2.04995,6.3387 3.63289,8.7084 1.44371,2.1803 6.11943,9.1769 0.9863,8.9645 -6.47105,-0.2738 -11.84275,-4.585 -15.12379,-9.7721 -5.6111,-8.8617 3.99989,-16.34644 11.34898,-19.36018 3.16695,-1.30303 6.59158,-2.0413 10.03764,-2.18717 0.71801,-0.0308 1.43769,-0.0333 2.15529,-0.0255 z m -87.99416,12.67476 c 0.53139,0.026 1.0339,0.1307 1.48153,0.324 3.08611,1.3384 3.61584,3.8603 3.04433,6.6854 -0.45199,2.2288 -1.47135,4.2821 -2.62204,6.2295 -0.95866,1.6097 -1.5418,3.839 -3.92922,2.9228 -1.31696,-0.504 -2.61416,-2.1945 -3.66115,-3.1388 -1.78205,-1.6198 -3.328,-3.531 -3.32011,-6.0696 0.0208,-3.5198 5.28816,-7.1367 9.00666,-6.9533 z m 83.6998,0.066 c 3.71994,-0.1869 8.9919,3.4249 8.99874,6.9494 0.0208,2.5385 -1.52621,4.4457 -3.31615,6.0655 -1.04159,0.9494 -2.34524,2.6306 -3.65721,3.1348 -2.39239,0.9238 -2.97553,-1.3054 -3.92901,-2.915 -1.15069,-1.955 -2.17004,-4.0073 -2.62204,-6.2413 -0.57151,-2.8098 -0.0437,-5.3439 3.04412,-6.6694 0.44828,-0.1918 0.95015,-0.2971 1.48155,-0.324 z m -46.9743,19.3044 c 1.85229,13.1327 -3.14596,25.3372 -4.84238,38.3447 0.40795,-3.135 -1.12825,-7.3481 -1.38802,-10.5519 -0.29884,-3.6133 -0.35558,-7.2614 0,-10.8797 0.66752,-6.5971 3.39077,-11.1426 6.2223,-16.9131 z m 10.249,0.056 c 2.83672,5.7628 5.55354,10.3175 6.22645,16.9172 0.36369,3.6132 0.30425,7.2598 0,10.8756 -0.25977,3.2013 -1.79866,7.4185 -1.38822,10.5557 -1.69892,-13.0124 -6.70111,-25.221 -4.84634,-38.3485 z"
       id="path10307"
       inkscape:export-xdpi="73.202553"
       inkscape:export-ydpi="73.202553" />
  </g>
</svg>
