<?xml version="1.0" encoding="UTF-8" standalone="no"?>
<svg
   xmlns:dc="http://purl.org/dc/elements/1.1/"
   xmlns:cc="http://creativecommons.org/ns#"
   xmlns:rdf="http://www.w3.org/1999/02/22-rdf-syntax-ns#"
   xmlns:svg="http://www.w3.org/2000/svg"
   xmlns="http://www.w3.org/2000/svg"
   xmlns:sodipodi="http://sodipodi.sourceforge.net/DTD/sodipodi-0.dtd"
   xmlns:inkscape="http://www.inkscape.org/namespaces/inkscape"
   version="1.1"
   id="svg13455"
   viewBox="0 0 580.95801 197.42501"
   height="197.425"
   width="580.95801"
   inkscape:version="0.91 r13725"
   sodipodi:docname="bottom-border.svg">
  <sodipodi:namedview
     pagecolor="#ffffff"
     bordercolor="#666666"
     borderopacity="1"
     objecttolerance="10"
     gridtolerance="10"
     guidetolerance="10"
     inkscape:pageopacity="0"
     inkscape:pageshadow="2"
     inkscape:window-width="640"
     inkscape:window-height="480"
     id="namedview7"
     showgrid="false"
     inkscape:zoom="0.34940016"
     inkscape:cx="47.094454"
     inkscape:cy="553.39197"
     inkscape:current-layer="svg13455"
     units="px" />
  <defs
     id="defs13457" />
  <metadata
     id="metadata13460">
    <rdf:RDF>
      <cc:Work
         rdf:about="">
        <dc:format>image/svg+xml</dc:format>
        <dc:type
           rdf:resource="http://purl.org/dc/dcmitype/StillImage" />
        <dc:title></dc:title>
      </cc:Work>
    </rdf:RDF>
  </metadata>
  <g
     id="layer1"
     transform="matrix(1,0,0,0.99999767,-80.682019,3.1695494)">
    <path
       id="path10307"
       d="m 382.06378,194.25317 c -0.53139,0.0409 -1.1058,-0.37999 -1.11225,-1.04355 -0.0915,-9.1688 -2.41173,-18.13416 -3.89244,-27.1571 -0.74814,-4.62663 -0.72819,-9.09077 -0.50749,-13.75066 0.0686,-1.30508 -0.0291,-2.59378 -0.23119,-3.87838 -0.72779,-4.62278 -2.84899,-9.08256 -3.89245,-13.6186 -1.05281,4.5153 -3.14035,8.95819 -3.87229,13.56257 -0.19742,1.27692 -0.2953,2.5733 -0.23535,3.87838 0.226,4.65477 0.25119,9.1253 -0.50728,13.75448 -1.47032,9.01527 -3.79497,17.9796 -3.8885,27.1612 -0.0208,1.05174 -1.46637,1.49086 -1.89572,0.42377 -2.8575,-7.19583 -5.16761,-14.31541 -4.79354,-22.11517 0.0955,-1.996 2.06072,-9.34793 -2.71141,-7.3289 -3.31201,1.39976 -5.50949,5.03299 -8.9256,6.28945 -7.51535,2.75345 -15.94302,1.7749 -23.36734,-0.57168 -7.79072,-2.46173 -11.9263,-6.32015 -16.04112,-13.2908 -6.61632,-11.21343 -6.17929,-24.93489 3.19853,-34.36216 8.84789,-8.90011 24.54277,-6.94607 34.50519,-1.30354 4.55642,2.57178 9.34353,9.29342 8.39794,14.59818 -0.99233,5.57088 -6.32475,9.70594 -11.089,12.21118 -1.88345,0.998 -6.10674,1.39744 -7.19259,3.33458 -1.68583,3.01704 4.6597,5.30629 6.7379,5.95371 5.18506,1.61216 11.95746,-1.65156 15.91121,-4.59438 2.49112,-1.85525 4.73826,-4.01374 6.92037,-6.20934 3.82906,-3.85381 6.3954,-6.9425 8.75934,-11.89923 0.052,-0.11014 0.23692,-0.0512 0.21118,0.0665 -10e-4,0 0,0 0,0 2.36312,4.94674 4.93008,8.0257 8.75519,11.87542 2.18211,2.19816 4.42385,4.36076 6.91248,6.21346 3.95105,2.94026 10.72488,6.20627 15.91517,4.59412 2.07819,-0.64742 8.42663,-2.9446 6.73768,-5.96164 -1.08024,-1.92946 -5.30789,-2.32739 -7.19635,-3.33051 -4.75655,-2.51292 -10.08356,-6.62877 -11.08109,-12.20733 -0.94288,-5.30732 3.83611,-12.02616 8.38984,-14.59793 9.96242,-5.64766 25.66291,-7.60194 34.51349,1.3033 9.37262,9.41958 9.81195,23.14746 3.19022,34.35832 -4.1121,6.96809 -8.24603,10.83904 -16.02885,13.29054 -7.43201,2.34658 -15.8655,3.32922 -23.37544,0.57577 -3.41342,-1.25646 -5.61609,-4.89096 -8.9256,-6.29328 -4.77463,-2.01903 -2.80242,5.33802 -2.7114,7.3289 0.37407,7.7972 -1.9377,14.92316 -4.7977,22.11132 -0.15796,0.40305 -0.46054,0.59164 -0.77933,0.61569 z m 0.34498,-6.17761 c -0.41045,-3.13474 1.12846,-7.35193 1.38824,-10.55577 0.29613,-3.61327 0.35557,-7.25827 0,-10.87154 -0.67293,-6.5996 -3.38973,-11.15457 -6.22647,-16.91738 -1.85478,13.12753 3.14742,25.33231 4.84634,38.34469 z m -19.93771,-0.0563 c 1.69643,-13.00727 6.69468,-25.21358 4.84239,-38.34879 -2.82883,5.77049 -5.55477,10.32034 -6.2223,16.91738 -0.36368,3.61839 -0.30694,7.26364 0,10.87947 0.26226,3.20127 1.79598,7.41464 1.38802,10.55194 z m 51.58538,-20.00811 c 1.80054,-0.0665 3.64368,-0.29711 5.5284,-0.70757 18.43871,-4.02015 32.1219,-32.78173 13.14286,-45.35397 -7.60887,-5.05141 -17.89339,-5.59699 -26.33852,-2.12702 -7.34909,3.01448 -16.96008,10.49845 -11.34898,19.36018 3.28104,5.18704 8.65274,9.50069 15.1238,9.77194 5.13313,0.21496 0.4574,-6.78153 -0.98631,-8.96433 -1.58296,-2.36961 -5.43571,-5.63769 -3.63287,-8.70846 1.16128,-1.98064 4.2426,-3.08995 6.40912,-3.35864 10.21429,-1.2539 14.98498,8.32408 10.55324,16.91711 -0.93519,1.81687 -2.43023,3.50914 -4.2902,4.43037 -3.08611,1.51747 -3.88331,2.57559 -6.03173,5.18575 -1.62349,1.98576 -3.53001,3.56874 -6.03153,4.35435 -8.08166,2.54874 -16.40957,-1.96939 -23.11172,-7.61705 7.90313,9.72667 18.41066,17.28154 31.01444,16.81734 z m -83.23698,-0.059 c 12.60482,0.46573 23.10943,-7.09552 31.01028,-16.81324 -6.70215,5.6451 -15.02592,10.16809 -23.10757,7.6168 -2.49901,-0.79073 -4.4068,-2.37346 -6.03567,-4.35411 -2.14822,-2.61015 -2.94397,-3.67391 -6.02758,-5.19394 -1.86767,-0.91611 -3.35772,-2.60786 -4.29021,-4.42217 -4.43173,-8.58792 0.34291,-18.17384 10.5572,-16.91738 2.16402,0.26869 5.24139,1.37775 6.40518,3.35072 1.80531,3.08101 -2.06115,6.34779 -3.63288,8.70461 -1.44684,2.1828 -6.11818,9.18749 -0.99025,8.98021 6.47354,-0.2738 11.8442,-4.58748 15.12773,-9.77196 5.6059,-8.86429 -3.99843,-16.35516 -11.34483,-19.3722 -8.45052,-3.46485 -18.73276,-2.92029 -26.34682,2.13112 -18.97904,12.5748 -5.28899,41.34126 13.14702,45.35373 1.88491,0.41148 3.72764,0.64128 5.5284,0.70781 z m 84.678,-21.23156 c 0.24678,-0.0256 0.51662,-0.0897 0.81569,-0.20472 1.31195,-0.50412 2.6156,-2.1892 3.65719,-3.13858 1.78993,-1.61727 3.32925,-3.52319 3.31616,-6.06169 0,-4.02527 -6.89542,-8.17107 -10.4803,-6.62545 -3.0886,1.3281 -3.61562,3.86124 -3.04412,6.67355 0.452,2.23143 1.47135,4.2809 2.62204,6.2334 0.83419,1.41051 1.38553,3.29162 3.11334,3.12273 z m -86.11901,-0.0563 c 1.72426,0.16643 2.27455,-1.7163 3.11332,-3.1268 1.15069,-1.94739 2.17004,-4.00327 2.62205,-6.22957 0.5715,-2.82511 0.0415,-5.34699 -3.04434,-6.68533 -3.58217,-1.54051 -10.47531,2.60401 -10.48819,6.62928 0,2.5385 1.53806,4.4539 3.32011,6.07373 1.04699,0.9417 2.3442,2.63063 3.66114,3.13474 0.29843,0.11527 0.56965,0.17913 0.81591,0.20472 z m 137.35524,-12.46323 c 0.22081,-6.03124 -13.58054,-8.711 -17.03552,-12.8028 -2.33796,-2.76881 -4.50986,-5.68733 -7.37506,-7.90084 1.34812,0.28405 2.68606,0.62312 3.99801,1.01976 6.27862,1.89876 12.19334,5.70472 15.86654,11.15533 0.054,0.0843 0.19119,0 0.14133,-0.0768 -3.30433,-5.99824 -9.14257,-10.04295 -15.06272,-13.31076 -2.13283,-1.17968 -4.35669,-2.22067 -6.63231,-3.11887 5.4889,1.15153 10.59729,1.88442 15.71212,5.80989 5.56954,4.27349 10.74028,11.93864 10.387,19.22404 z M 275.58914,133.6693 c -0.3506,-7.28284 4.8214,-14.9467 10.39094,-19.22019 5.11503,-3.92291 10.22321,-4.66604 15.71211,-5.81757 -2.27809,0.90076 -4.49947,1.94558 -6.63231,3.12271 -5.91494,3.27036 -11.7559,7.31098 -15.0627,13.30666 -0.0498,0.0945 0.0853,0.16644 0.14132,0.0768 3.67049,-5.44806 9.58355,-9.25018 15.86238,-11.15149 1.31446,-0.39665 2.65115,-0.73443 4.00197,-1.02359 -2.8652,2.22119 -5.03961,5.13612 -7.37508,7.90493 -3.45498,4.09692 -17.25767,6.77385 -17.03946,12.8028 z m 255.73874,-17.57298 c -5.84429,-0.087 -11.48946,-3.38167 -12.77358,-9.63608 -1.73778,-8.4702 7.53924,-15.877659 15.21295,-11.307319 4.33053,2.57944 4.53399,11.580109 -1.24608,12.626729 -0.53844,0.0972 -1.1085,0 -1.68042,-0.15865 4.37978,1.01566 6.3179,-4.67832 5.53649,-7.920782 -1.69371,-7.078129 -10.5258,-6.916663 -14.66908,-2.323311 -4.31494,4.785283 -3.24986,11.407153 1.42875,15.429863 4.60049,3.94593 11.08214,3.50041 16.11406,0.69577 10.95203,-6.10315 11.52458,-20.593844 2.23238,-28.324509 -10.15962,-8.46251 -23.58554,-5.88334 -34.92725,-1.69942 -13.36025,4.93114 -26.33145,10.871032 -39.86315,15.369711 -12.43004,4.140418 -25.40728,6.117238 -38.32052,3.130918 -11.07153,-2.561538 -22.09674,-7.840455 -30.20686,-15.793749 -3.36915,-3.30364 -6.23704,-7.01313 -8.9256,-10.87972 -3.31471,-3.89733 -6.20609,-8.11732 -8.96217,-12.45478 -2.60438,-4.10664 -6.72503,-9.43929 -9.25043,-14.73023 -2.54142,5.11616 -6.46276,10.22873 -8.98235,14.19821 -2.75359,4.33491 -5.646,8.55644 -8.95822,12.4512 -2.68855,3.86406 -5.55893,7.58403 -8.9256,10.88766 -8.11014,7.95049 -19.14197,13.230679 -30.21081,15.789649 -12.91344,2.98633 -25.89317,1.01104 -38.32072,-3.126822 -13.53152,-4.498678 -26.50294,-10.438807 -39.86298,-15.369947 -11.34169,-4.18393 -24.76658,-6.76466 -34.9314,1.69531 -9.28949,7.735776 -8.71549,22.221609 2.23655,28.324769 5.0317,2.80464 11.51335,3.25272 16.11404,-0.69577 4.68113,-4.02015 5.74203,-10.64304 1.42459,-15.425766 -4.14327,-4.593363 -12.9687,-4.762763 -14.66492,2.323032 -0.78078,3.248114 1.16899,8.956164 5.56891,7.904944 -0.58272,0.17134 -1.1646,0.27074 -1.71304,0.17134 -5.77902,-1.04918 -5.5764,-10.04909 -1.24609,-12.631091 7.67641,-4.567768 16.95365,2.843772 15.21317,11.311421 -1.28245,6.2544 -6.92889,9.54831 -12.77357,9.63634 -2.65677,0.0409 -5.353,-0.58396 -7.6999,-1.89135 -8.49459,-4.7341 -12.17172,-14.825155 -7.69572,-23.566609 4.14598,-8.09404 14.5579,-12.03998 23.32264,-11.83527 6.49433,0.14599 12.87125,2.27315 18.8824,4.53017 7.16976,2.69204 14.33431,5.38051 21.53273,8.00088 14.21481,5.176817 29.74032,11.325009 45.20453,9.920129 12.88994,-1.169447 26.44554,-6.082683 36.21821,-14.614299 0.35849,-0.31475 0.69765,-0.64104 1.04305,-0.96348 -20.25713,14.212557 -47.78706,14.228177 -70.80029,5.82962 -12.529,-4.57287 -23.94904,-11.03047 -34.26995,-19.38041 -9.33355,-7.54896 -18.11159,-15.839 -28.06361,-22.62285 -9.80385,-6.67125 -20.98385,-12.21985 -33.16972,-12.27103 -12.55496,-0.0488 -25.49271,5.10873 -33.62839,14.73815 -8.58396,10.154 -9.64798,24.69177 -0.61306,35.09402 6.36195,7.326333 16.78426,8.775732 25.49435,4.765819 7.74645,-3.554399 14.6267,-11.413029 12.53812,-20.379659 -2.11705,-9.07157 -12.66011,-18.72734 -22.69775,-14.92213 -4.97725,1.88596 -8.03988,7.13874 -8.76725,12.19529 -0.45719,3.16033 0.61516,6.36954 3.98181,7.36498 3.51214,1.03383 6.69509,0.046 8.36553,-3.29877 1.02871,-2.06255 0.94911,-4.87869 -1.01477,-6.36544 -0.0291,-0.0255 -0.0644,0.0255 -0.0395,0.0488 1.32735,1.64031 0.89175,3.72509 -0.20781,5.35005 -0.0935,0.13814 -0.18912,0.25923 -0.29241,0.37183 -0.44161,-0.97242 -1.21427,-1.90594 -1.42459,-2.99094 -0.38716,-2.00112 1.09998,-4.02782 -0.84832,-5.6016 4.40306,-0.18423 7.90708,3.90218 6.51471,7.9607 -1.45474,4.24534 -7.53946,6.74675 -11.83611,5.21393 -3.72515,-1.33066 -4.88728,-5.20803 -4.18069,-8.78035 1.17688,-5.96242 4.82783,-12.10882 11.42608,-13.10682 9.0505,-1.37672 17.19035,4.84823 20.7777,12.67076 3.26277,7.10396 0.97488,15.12584 -4.72454,20.30009 -5.70463,5.179356 -14.04023,8.101191 -21.77628,6.54533 -9.70264,-1.944818 -16.70343,-11.04145 -18.57379,-20.32797 -2.84192,-14.08716 5.30851,-25.83257 16.88921,-33.06679 -6.03443,2.75601 -11.85522,5.83445 -17.6118,9.24045 -7.59827,4.48844 -15.61301,9.72792 -24.49996,11.26331 -6.64209,1.15154 -13.381032,-1.16049 -18.350386,-5.56959 -7.312724,-6.49211 -11.302218,-17.2521 -5.11442,-25.8656 4.527952,-6.30532 13.681534,-7.81333 19.755036,-2.67492 5.71751,4.84159 4.45812,16.99699 -4.37146,17.345 -3.145968,0.12553 -7.437213,-1.46885 -7.496856,-5.18192 0,-0.54763 0.07478,-1.02307 0.215091,-1.42739 -0.02339,0.0255 -0.05191,0.0255 -0.07687,0.0409 1.563831,-1.84758 3.413629,-3.11888 5.917844,-2.47913 2.564061,0.65509 3.298911,2.85247 5.223941,4.17034 -2.49653,-1.71195 -5.85904,0.28406 -8.633417,-1.9832 1.249412,-1.34858 3.328637,-0.64384 4.895167,-0.29582 -1.670441,-0.87772 -4.497193,-2.06175 -6.149351,-0.52382 -1.311961,1.21808 -1.007085,4.31905 0.284089,5.52176 3.182114,2.9505 9.162932,2.41848 11.641172,-1.24341 3.6601,-5.40966 1.21864,-13.04181 -4.82618,-15.47795 -11.141779,-4.48845 -20.946868,6.70502 -18.086662,17.40922 1.493593,5.59392 5.370039,10.55781 10.435617,13.4904 5.579933,3.22686 11.290775,3.63041 17.400655,1.70349 6.8763,-2.16488 13.08531,-5.93961 19.20287,-9.63222 5.90725,-3.56721 11.85855,-6.67586 18.21261,-9.38837 7.45029,-3.18848 16.68825,-6.61136 25.30754,-6.1533 1.42355,-0.10507 2.8313,-0.13307 4.21331,-0.0972 24.81602,0.72419 43.74312,18.56663 62.60536,32.23923 10.35976,7.50803 21.73722,13.46814 34.14401,16.96114 3.11727,0.87772 6.30396,1.64389 9.53035,2.26315 -5.69153,-1.56865 -11.10084,-4.02962 -15.89897,-7.561 -9.65567,-7.11395 -17.03095,-17.90105 -19.58443,-29.55206 -2.46784,-11.27228 -1.40838,-24.31716 5.21583,-34.13849 2.30679,-3.4213601 5.19028,-6.3987201 8.47901,-8.8323201 -1.44685,0.75234 -2.87061,1.55074 -4.25779,2.40287 -8.65814,5.3098801 -15.53714,13.0175101 -24.13045,18.4527701 -6.93346,4.38353 -17.61034,9.45158 -25.98544,6.08141 -7.07103,-2.84045 -11.65342,-11.76029 -10.80906,-19.14036 0.95596,-8.4190301 10.48528,-14.7404501 18.36679,-9.8400101 5.12275,3.18592 9.86683,11.6676201 5.53651,17.2410701 -2.38991,3.07844 -6.24515,3.93955 -9.84312,2.46303 -3.7979,-1.56353 -5.72955,-6.00899 -3.86398,-9.676 2.10916,-4.1404201 10.93189,-2.6557001 10.92669,2.28312 0,3.77961 -4.64661,5.15504 -7.15601,3.52242 3.10687,-0.38896 4.22972,-3.64064 3.06864,-6.0256 l 0.0332,0 c 1.7222,1.00823 1.55574,3.94771 0.18703,5.09414 -0.029,0.0255 0,0.0563 0.0332,0.0409 1.78205,-1.22063 2.39803,-3.3223 1.21346,-5.19805 -0.78451,-1.23854 -2.32673,-1.54843 -3.68545,-1.67127 -7.21651,-0.6499701 -5.4912,9.2525 -0.60475,11.20755 3.73804,1.497 8.44407,0.25078 10.00523,-3.69464 1.08585,-2.75602 0.69702,-5.87977 -0.56818,-8.5206201 -1.84959,-3.85127 -5.46938,-7.44969 -9.99712,-7.82075 -6.0735,-0.50155997 -11.78167,3.99687 -12.26213,10.0718801 -0.44952,5.66812 2.27768,12.96837 7.22897,16.23362 5.2655,3.47253 12.08381,2.37013 17.67663,0.27175 12.17299,-4.57031 20.92942,-14.37323 31.6113,-21.3234001 5.80063,-3.77193 13.23909,-7.42077997 20.6763,-8.66445 0.94828,-0.22263 1.90634,-0.41661 2.87788,-0.55989 9.78306,-1.44327 19.86435,0.54122 27.88097,6.3936 8.64005,6.3053 14.47643,17.7943201 14.20627,28.4166301 -0.27786,10.81678 -6.98105,19.51602 -16.97442,23.67435 -7.90813,3.29086 -18.49982,4.31264 -25.36052,-1.80331 -6.64501,-5.92914 -8.47464,-16.52893 -6.09243,-24.80209 2.31967,-8.06076 9.10786,-13.55002 17.80259,-10.59952 4.69669,1.59936 10.07566,4.9232 11.76689,9.81596 1.44164,4.15577 -0.0208,9.62737 -3.88433,12.13516 -4.59799,2.98122 -15.19133,2.37245 -16.48749,-4.27833 -1.26522,-6.50491 6.23122,-9.42958 11.60852,-8.34457 -2.85749,0.45038 -2.54578,4.72823 -3.05222,6.57324 -0.68331,2.47965 -3.95979,4.16166 -3.97787,0.30785 -0.0208,-1.79642 1.41691,-3.47049 2.52875,-4.74997 0.0234,-0.0283 -0.0208,-0.0689 -0.0415,-0.0512 -2.92256,1.78104 -5.08076,5.86134 -2.29348,8.66853 2.55887,2.57945 7.07061,3.09124 10.21657,1.27948 2.67297,-1.53793 4.76134,-4.95341 4.66781,-8.03696 -0.10383,-3.39322 -2.06177,-6.27256 -4.71665,-8.33254 -4.20583,-3.26781 -10.87619,-6.11493 -16.06126,-3.26679 -4.00301,2.20073 -6.13169,6.52488 -6.94489,10.83164 -1.77685,9.44005 1.44892,21.83469 11.93337,24.76216 9.59603,2.67668 21.57782,-1.45145 27.92147,-8.93646 8.70511,-10.26915 6.01843,-25.21124 -1.63968,-35.32176 -6.45548,-8.5188301 -17.11366,-13.0681701 -27.82423,-12.6510501 -10.79348,0.43247003 -21.4812,5.47439 -27.51561,14.5101301 -7.10221,10.63765 -8.02743,24.35608 -3.51505,36.13759 4.33821,11.31578 13.35026,21.63534 25.08435,25.85765 23.16139,8.33457 49.31579,-2.11678 68.10529,-15.58979 6.22666,-4.46026 16.79174,-18.57428 25.97733,-14.97381 -10e-4,0 -10e-4,0 0,0 8.53241,-0.54379 17.77556,11.43835 23.4324,15.48971 18.792,13.473 44.93974,23.92565 68.10113,15.59362 11.73656,-4.22485 20.75276,-14.54188 25.0885,-25.85765 4.51485,-11.78152 3.58445,-25.49968 -3.51505,-36.13734 -6.03714,-9.0382901 -16.72462,-14.07896007 -27.51562,-14.50630007 -10.71305,-0.42225 -21.36895,4.12658997 -27.82421,12.64286007 -7.65811,10.11563 -10.34479,25.05673 -1.6399,35.32589 6.34118,7.48755 18.32296,11.60774 27.92169,8.92851 10.48445,-2.92236 13.7127,-15.3165 11.93337,-24.75398 -0.8132,-4.30676 -2.94189,-8.62962 -6.94489,-10.82778 -5.18508,-2.84559 -11.85563,0 -16.06148,3.26269 -2.65488,2.05742 -4.61107,4.93548 -4.71228,8.32868 -0.0955,3.08612 1.98924,6.50133 4.65971,8.03671 3.14575,1.81431 7.66165,1.3015 10.22031,-1.27539 2.78748,-2.80975 0.62513,-6.88901 -2.29722,-8.6726 -0.0313,0 -0.0582,0.0308 -0.0374,0.0563 1.11183,1.27949 2.53911,2.95357 2.52873,4.74998 -0.0208,3.85124 -3.29455,2.16922 -3.97786,-0.30786 -0.50645,-1.84503 -0.19741,-6.12285 -3.05223,-6.57323 5.37731,-1.08499 12.87208,1.8381 11.6044,8.34046 -1.29098,6.65333 -11.88786,7.26621 -16.48335,4.28245 -3.86542,-2.50779 -5.32618,-7.97428 -3.88434,-12.13516 1.69373,-4.89021 7.07019,-8.21944 11.7669,-9.81623 8.69722,-2.95049 15.4802,2.53901 17.80257,10.59977 2.38201,8.27573 0.55509,18.87807 -6.09262,24.8021 -6.85801,6.12105 -17.45281,5.09414 -25.36031,1.8033 -9.99339,-4.15833 -16.69657,-12.85783 -16.97462,-23.6746 -0.27017,-10.62232 5.56891,-22.11518 14.20648,-28.4204801 8.01659,-5.84982 18.09788,-7.83149 27.88094,-6.3936 0.97405,0.14599 1.93106,0.33984 2.88183,0.5599 7.43741,1.24878003 14.8742,4.89659 20.67234,8.66852 10.68438,6.9527401 19.43812,16.7518301 31.6111,21.3195901 5.59302,2.10094 12.41383,3.20459 17.67684,-0.26793 4.95128,-3.27037 7.68098,-10.56676 7.22896,-16.23746 -0.48068,-6.0749901 -6.18862,-10.5762301 -12.26212,-10.0721101 -4.53044,0.37361 -8.14607,3.96972 -9.99317,7.82098 -1.26769,2.6408601 -1.65818,5.7699801 -0.57233,8.5285501 1.56133,3.94338 6.26989,5.18756 10.00543,3.69056 4.88893,-1.96019 6.60759,-11.8600701 -0.60891,-11.20753 -1.35851,0.1203 -2.89699,0.4276 -3.68151,1.67125 -1.18187,1.87317 -0.56838,3.97741 1.21366,5.19805 0.027,0.0255 0.0623,-0.0255 0.0374,-0.0435 -1.3716,-1.14642 -1.54222,-4.08182 0.18287,-5.09006 l 0.0374,0 c -1.16379,2.38496 -0.0478,5.63666 3.06449,6.02563 -2.51211,1.63518 -7.14834,0.25333 -7.15601,-3.52268 0,-4.9388401 8.82002,-6.4209901 10.92667,-2.28312 1.86518,3.66445 -0.0644,8.11525 -3.86812,9.67622 -3.59278,1.47654 -7.44781,0.61673 -9.84291,-2.45916 -4.32783,-5.576 0.4177,-14.0590101 5.54044,-17.2449301 7.87882,-4.89788 17.41083,1.41947 18.36681,9.8359301 0.84685,7.38009 -3.73949,16.30271 -10.81323,19.14831 -8.37239,3.36504 -19.04389,-1.70582 -25.97733,-6.08934 -8.5958,-5.43271 -15.47626,-13.14034 -24.1344,-18.4527701 -1.38719,-0.85214 -2.81096,-1.64261 -4.25799,-2.39494 3.28872,2.43613 6.17241,5.4071 8.4792,8.8284501 6.62422,9.81623 7.68369,22.86852 5.21584,34.13827 -2.55368,11.65099 -9.92875,22.43809 -19.58462,29.55204 -4.79791,3.53394 -10.20723,5.98979 -15.89876,7.56101 3.22889,-0.61673 6.41454,-1.38389 9.5343,-2.25907 12.4043,-3.49555 23.78028,-9.45977 34.14005,-16.96523 18.86203,-13.67261 37.79182,-31.51736 62.60537,-32.23899 1.38448,-0.0359 2.78954,0 4.2131,0.0997 8.61928,-0.4555 17.85475,2.96356 25.30774,6.14948 6.35406,2.71506 12.30266,5.82371 18.2124,9.38836 6.11506,3.6926 12.33093,7.46222 19.20701,9.63223 6.10469,1.9269 11.81159,1.52207 17.39672,-1.70736 5.06309,-2.93257 8.9418,-7.89927 10.43561,-13.49065 2.86271,-10.70161 -6.94509,-21.89354 -18.08666,-17.4051 -6.04504,2.43613 -8.48899,10.06826 -4.82617,15.47793 2.47823,3.65935 8.45883,4.19239 11.64116,1.23933 1.29097,-1.20016 1.59583,-4.30368 0.28409,-5.52175 -1.65216,-1.54051 -4.47891,-0.34983 -6.14936,0.52791 1.56904,-0.35059 3.64556,-1.0566 4.89517,0.29198 -2.77188,2.26725 -6.1344,0.27637 -8.63341,1.9832 1.92233,-1.31787 2.66237,-3.51271 5.22373,-4.17036 2.50692,-0.63463 4.35422,0.6313 5.91806,2.47889 -0.0259,-0.0255 -0.052,-0.0255 -0.0769,-0.0359 0.14133,0.40432 0.21873,0.87591 0.21119,1.42354 -0.0582,3.71307 -4.34966,5.31116 -7.49291,5.18577 -8.82979,-0.35059 -10.08917,-12.50341 -4.37145,-17.34499 6.07079,-5.14098 15.23102,-3.62914 19.75897,2.67105 6.1851,8.61606 2.19415,19.37989 -5.11835,25.86946 -4.96687,4.41167 -11.7056,6.72139 -18.35062,5.56986 -8.88673,-1.53795 -16.89731,-6.77387 -24.49579,-11.26743 -5.75906,-3.40088 -11.58277,-6.47626 -17.6199,-9.23227 11.58069,7.23422 19.7326,18.97557 16.89337,33.06272 -1.87307,9.28652 -8.86865,18.380325 -18.57379,20.327706 -7.73604,1.555861 -16.06771,-1.367245 -21.77234,-6.549166 -5.70192,-5.17424 -7.9954,-13.19229 -4.73265,-20.29601 3.58737,-7.82278 11.73137,-14.04645 20.78187,-12.67483 6.59553,1.00311 10.25316,7.14823 11.43003,13.11064 0.70658,3.57233 -0.46115,7.44737 -4.18879,8.7806 -4.29416,1.53538 -10.37721,-0.96754 -11.83196,-5.21799 -1.39487,-4.06111 2.11415,-8.14369 6.51472,-7.95688 -1.94582,1.56865 -0.46138,3.60175 -0.84833,5.59775 -0.21042,1.08756 -0.98194,2.02362 -1.42876,2.99092 -0.0976,-0.1126 -0.19743,-0.2303 -0.28823,-0.36797 -1.10144,-1.62751 -1.53039,-3.71358 -0.20366,-5.35389 0.0208,-0.0308 -0.0208,-0.0689 -0.0435,-0.0488 -1.9639,1.48933 -2.03829,4.30805 -1.0148,6.36548 1.67295,3.34969 4.85341,4.33513 8.36553,3.29875 3.36398,-0.99032 4.43631,-4.20337 3.98182,-7.36115 -0.72737,-5.05909 -3.78749,-10.30805 -8.76746,-12.19914 -10.03764,-3.80006 -20.58048,5.85214 -22.69754,14.92626 -2.09377,8.96408 4.78752,16.82268 12.53397,20.379654 8.71279,4.002247 19.13511,2.553861 25.49435,-4.769914 9.03741,-10.39967 7.97152,-24.93594 -0.6089,-35.08995 -8.1386,-9.63198 -21.07365,-14.78934 -33.62838,-14.73816 -12.18608,0.0512 -23.36341,5.59879 -33.16995,12.27517 -9.9518,6.77872 -18.72987,15.06979 -28.06362,22.61877 -10.32068,8.34993 -21.73949,14.81004 -34.26576,19.380368 -23.01322,8.395991 -50.54981,8.382685 -70.80444,-5.829858 0.34559,0.31988 0.68477,0.65151 1.04324,0.96371 9.77267,8.529068 23.32806,13.439489 36.21802,14.614059 15.46441,1.40488 30.98992,-4.743068 45.20471,-9.919873 7.20092,-2.622956 14.36047,-5.311396 21.53271,-8.000876 6.01116,-2.25959 12.38788,-4.38583 18.8822,-4.53424 8.76475,-0.20473 19.17544,3.74121 23.31871,11.83525 4.4812,8.744009 0.80301,18.839169 -7.69158,23.570709 -2.34772,1.30815 -5.04355,1.93124 -7.69988,1.89109 z m -319.81342,-9.02037 c 0.27557,-0.0819 0.55239,-0.14597 0.82401,-0.27177 -0.20158,0.0897 -0.40774,0.17156 -0.63321,0.23543 -0.0665,0.0256 -0.12681,0.0256 -0.1912,0.0358 z m 319.32629,0.54379 c -0.0748,-0.0256 -0.14538,-0.0256 -0.22315,-0.0436 -0.21457,-0.0588 -0.41107,-0.14331 -0.60475,-0.22775 0.27307,0.12549 0.55134,0.19182 0.82794,0.27176 z m -1.83857,-0.90358 c -1.57714,-1.09191 -2.80784,-2.81538 -2.64657,-4.45006 0.26497,-2.669013 3.47515,-4.107667 5.95857,-3.306703 -1.35331,-0.437587 -4.00133,2.938483 -4.33904,3.890413 -0.53325,1.49905 -0.0873,2.93437 1.02704,3.86635 z m -315.69362,-0.52381 c 1.11995,-0.93301 1.57361,-2.3732 1.0391,-3.8743 -0.3377,-0.95193 -2.98969,-4.322612 -4.3432,-3.882463 2.48613,-0.80864 5.6961,0.628216 5.95857,3.294663 0.1621,1.64109 -1.07192,3.37069 -2.65447,4.4621 z M 631.14173,76.888271 c -6.70735,-0.0255 -11.66528,-2.79824 -15.20089,-8.34864 -2.11975,-3.32411 -3.28894,-7.09784 -5.0737,-10.56781 3.03166,3.89219 5.80251,7.9753 10.23675,10.46773 8.09972,4.55499 18.09414,4.96571 27.00438,2.7829 0.0332,0 0.0208,-0.0691 -0.0208,-0.0638 -8.91271,1.67868 -19.93418,0.97009 -27.25978,-4.88996 -3.77462,-3.01448 -5.77362,-7.16155 -8.60516,-10.87973 5.65787,5.16656 13.24761,9.25734 20.85898,10.81575 9.11285,1.8655 20.23052,1.28512 28.55885,5.86568 -3.75362,-1.89107 -9.87679,-0.55093 -13.73951,0.65178 -5.7385,1.77849 -10.63553,4.18162 -16.7635,4.16627 z m -519.95671,-0.52781 c -6.12796,0 -11.02499,-2.38677 -16.763482,-4.17036 -3.860234,-1.19761 -9.9859,-2.54541 -13.739519,-0.65176 8.330828,-4.58313 19.449961,-3.99995 28.562801,-5.86544 7.60887,-1.55841 15.19302,-5.64663 20.85087,-10.81575 -2.82883,3.72074 -4.82887,7.87037 -8.60078,10.87972 -7.32832,5.86006 -18.34604,6.57019 -27.264153,4.89405 -0.03324,0 -0.04782,0.0488 -0.02076,0.0589 8.907513,2.18279 18.901933,1.77104 27.004163,-2.77881 4.43174,-2.49757 7.20258,-6.57962 10.23673,-10.47183 -1.78474,3.47509 -2.95247,7.24498 -5.06973,10.57164 -3.53541,5.54785 -8.4975,8.32819 -15.20486,8.34865 z m 375.21433,-4.4782 c 0.56111,-0.83679 1.07506,-1.63109 1.55034,-2.32714 4.64474,-6.80943 10.82506,-12.866 16.857,-18.48039 0.027,-0.028 -0.0208,-0.0717 -0.0437,-0.0512 -5.06557,3.82056 -10.43145,7.91924 -14.81124,12.6508 1.42877,-2.2084 2.8384,-4.44723 4.39185,-6.55326 2.76399,-3.75913 5.32951,-7.67745 10.07026,-9.09255 3.5408,-1.05942 7.28384,-1.00721 10.77248,-1.86703 -3.87831,1.86037 -6.36506,3.34635 -8.97838,6.8931 -3.14325,4.27092 -6.35115,8.40955 -10.12306,12.17125 -2.87558,2.86862 -6.39063,4.61511 -9.68456,6.65716 z m 67.97125,-0.0563 c -0.0643,-8.37808 -16.76161,-3.57873 -21.00111,-4.79424 -2.48863,-0.71397 -4.11211,-1.86166 -6.2994,-2.27108 0.69349,-0.18937 1.38303,-0.37183 2.07402,-0.53561 6.43989,-1.55075 12.90575,-1.52207 19.12993,0.87568 0.0353,0 0.0665,-0.0359 0.029,-0.0563 -5.76449,-3.08102 -12.29351,-4.10768 -18.79305,-3.37069 -2.64968,0.29684 -5.1911,0.84651 -7.71611,1.61932 2.01855,-1.77337 3.96623,-3.49095 6.70944,-4.45825 0.42083,-0.14336 0.85934,-0.27381 1.31923,-0.38384 4.33031,-1.02615 11.08068,-0.49054 15.09927,1.48754 3.75384,1.85781 9.97925,7.16077 9.4493,11.8872 z m -298.44716,-0.47597 c -3.29392,-2.04205 -6.80481,-3.78858 -9.6806,-6.65717 -3.77191,-3.7617 -6.97979,-7.90134 -10.12306,-12.16715 -2.61332,-3.55442 -5.09986,-5.03811 -8.97839,-6.89335 3.48616,0.85213 7.22918,0.80505 10.7725,1.85934 4.74074,1.4151 7.30211,5.33981 10.0661,9.09637 1.55346,2.1086 2.96723,4.34746 4.39599,6.55329 -4.37728,-4.73154 -9.74961,-8.83282 -14.81518,-12.65081 -0.0291,-0.0255 -0.0645,0.0255 -0.0374,0.0485 6.02923,5.61952 12.20144,11.67125 16.84868,18.48068 0.47279,0.69859 0.99212,1.49671 1.55054,2.33095 z m -67.97124,-0.0589 c -0.52993,-4.72385 5.69694,-10.02912 9.45325,-11.87926 4.0161,-1.9832 10.77145,-2.52007 15.09928,-1.49136 0.45989,0.10998 0.8984,0.24054 1.31923,0.38793 2.74321,0.96217 4.69109,2.6846 6.70942,4.45799 -2.52229,-0.77281 -5.0716,-1.32376 -7.7161,-1.62315 -6.50201,-0.73443 -13.02857,0.28302 -18.79281,3.36658 -0.0395,0.0255 -0.0208,0.0717 0.0259,0.0589 6.22417,-2.39776 12.69274,-2.42106 19.12971,-0.87542 0.69369,0.16642 1.38574,0.34751 2.07423,0.53174 -2.18479,0.40687 -3.81201,1.55842 -6.29545,2.27493 -4.24469,1.21296 -20.94022,-3.58536 -21.00505,4.79016 z m 160.88076,-36.75736 c -2.86042,0.0359 -5.66098,-0.75489 -7.67953,-2.78287 -4.27068,-4.2914 -4.47309,-10.54604 -1.45701,-15.65377 1.87805,-3.17824 3.76421,-4.93652 7.31002,-6.05735 3.38495,-1.0722001 7.2296,-1.5179701 10.65069,-0.2640801 1.55616,0.5732001 2.562,2.2311801 4.07118,2.8709101 2.1769,0.91612 1.27414,-2.43818 1.22987,-3.3466101 -0.16834,-3.55442 0.88407,-6.79536 2.18771,-10.07597997 0.19328,-0.48877003 0.85809,-0.28762003 0.86058,0.19695 0.0415,4.17879997 1.10352,8.26522997 1.77373,12.37496007 0.3456,2.11115 0.3379,4.14809 0.23145,6.26948 -0.0259,0.59624 0.0208,1.18249 0.11009,1.76338 0.3321,2.10193 1.29222,4.12788 1.76564,6.1853 0.47591,-2.06689 1.44017,-4.09923 1.77373,-6.20552 0.0915,-0.586 0.13085,-1.17097 0.10183,-1.76723 -0.10183,-2.1265 -0.10806,-4.15936 0.23536,-6.26538 0.67291,-4.1122801 1.72822,-8.2002401 1.76977,-12.37905007 0,-0.48365003 0.6723,-0.68735003 0.86453,-0.19715 1.30407,3.27548997 2.35667,6.52410997 2.18772,10.07597997 -0.0437,0.9084201 -0.94288,4.2614401 1.23403,3.3427701 1.51187,-0.63973 2.51252,-2.29769 4.07117,-2.8709001 3.41861,-1.25389 7.26179,-0.80583 10.64654,0.2638301 3.54601,1.12082 5.43051,2.87935 7.30607,6.05759 3.01857,5.11028 2.81512,11.36645 -1.45306,15.65786 -4.03419,4.05853 -11.1875,3.16596 -15.72834,0.59163 -2.0757,-1.17201 -4.25737,-4.22589 -3.82367,-6.64923 0.45202,-2.54362 2.88037,-4.42191 5.04938,-5.56578 0.86245,-0.45549 2.78601,-0.63924 3.27958,-1.51951 0.77164,-1.37674 -2.12287,-2.42053 -3.06844,-2.71481 -2.36394,-0.73699 -5.45067,0.75411 -7.25349,2.09502 -1.13511,0.84447 -2.15736,1.83147 -3.14971,2.82691 -1.74858,1.76081 -2.91298,3.1675 -3.9899,5.42196 l 0,0 0,0 0,0 c -10e-4,0.046 -0.0623,0.0743 -0.0853,0.0255 -1.07545,-2.25957 -2.24838,-3.66625 -3.99406,-5.42171 -0.99503,-1.00056 -2.01605,-1.98653 -3.15386,-2.83099 -1.80012,-1.34089 -4.8854,-2.82561 -7.24935,-2.09118 -0.94555,0.29428 -3.84402,1.33834 -3.07259,2.71507 0.49627,0.88028 2.42234,1.06374 3.2796,1.51924 2.1717,1.14386 4.5988,3.02344 5.05351,5.56194 0.43123,2.41568 -1.75066,5.48134 -3.82365,6.65335 -2.26897,1.28586 -5.19256,2.15056 -8.05297,2.18713 z m 1.01082,-0.67171 c 1.57008,-0.0666 3.13163,-0.40254 4.5743,-0.99545 3.35108,-1.37417 7.72483,-4.78658 5.17116,-8.82462 -1.4988,-2.36449 -3.94357,-4.33133 -6.89209,-4.45417 -2.33797,-0.0972 -0.20784,3.09483 0.45469,4.09027 0.71428,1.07477 2.47283,2.56563 1.65196,3.9705 -0.52994,0.8982 -1.93272,1.40465 -2.92256,1.52747 -4.65243,0.57065 -6.82559,-3.79778 -4.80976,-7.71302 0.42605,-0.82399 1.10685,-1.59806 1.95641,-2.01518 1.40527,-0.69091 1.76709,-1.17713 2.74384,-2.36704 0.74294,-0.90332 1.61413,-1.62495 2.75193,-1.98321 3.68629,-1.16433 7.47814,0.90151 10.53308,3.47073 -4.11481,-5.06166 -9.78286,-8.8356401 -16.65396,-7.3412 -8.39837,1.82967 -14.6373,14.94213 -5.98686,20.67167 2.16716,1.43634 4.81082,2.07327 7.42786,1.96325 z m 40.0903,-0.028 c 2.61768,0.10998 5.26447,-0.52793 7.43202,-1.96734 8.64774,-5.73211 2.40986,-18.83278 -5.99122,-20.66757 -6.87088,-1.4970001 -12.53645,2.27673 -16.65374,7.34093 3.05742,-2.5692 6.85075,-4.62842 10.53703,-3.46665 1.13781,0.35825 2.00482,1.07863 2.74777,1.97938 0.97966,1.19248 1.33856,1.6787 2.74404,2.36705 0.85206,0.41967 1.53039,1.18864 1.95641,2.01518 2.01833,3.91779 -0.15584,8.28596 -4.80581,7.71276 -0.99232,-0.12276 -2.39262,-0.62797 -2.92255,-1.5313 -0.82339,-1.39975 0.93497,-2.88908 1.65195,-3.96641 0.65983,-0.99544 2.78851,-4.18622 0.45055,-4.08641 -2.94583,0.12276 -5.39581,2.0858 -6.8921,4.45031 -2.55617,4.03804 1.82007,7.4502 5.17115,8.82436 1.44372,0.59394 3.00382,0.92918 4.5745,0.99571 z m 183.12794,-4.43419 c 0.88594,-0.39921 1.75068,-0.83474 2.58962,-1.32352 5.65787,-3.30363 9.08751,-8.40519 10.6021,-14.65422 0,-0.0308 -0.0415,-0.0384 -0.052,0 -1.88866,6.04942 -7.05441,10.69062 -12.76941,13.31868 -0.6962,0.32244 -1.40589,0.62032 -2.12287,0.89156 0.31173,-0.22263 0.61555,-0.46267 0.9092,-0.72369 2.36914,-2.11627 3.41655,-5.15656 5.60133,-7.49291 2.69647,-2.87629 5.28463,-3.1345 6.28736,-7.38496 0.53762,-2.2698001 0.8269,-5.0207101 -0.0415,-6.9092301 4.5668,4.07389 5.09944,11.6412901 2.72761,16.9690801 -2.70165,6.07757 -7.67599,7.24804 -13.73141,7.31713 z m -403.79728,-0.52794 c -6.05792,-0.0742 -11.03123,-1.24212 -13.73557,-7.31713 -2.36913,-5.32778 -1.84023,-12.8941501 2.73178,-16.9731701 -0.87035,1.89109 -0.57982,4.63943 -0.0457,6.9092401 1.00522,4.25302 3.59235,4.50636 6.2913,7.3852 2.1821,2.33379 3.22825,5.3818 5.59738,7.49295 0.29614,0.26356 0.60143,0.49848 0.91316,0.72367 -0.71698,-0.27125 -1.42792,-0.56911 -2.12682,-0.89154 -5.71502,-2.62807 -10.88097,-7.2693 -12.76941,-13.31871 -0.0208,-0.028 -0.0603,-0.0255 -0.0519,0 1.51437,6.24389 4.94815,11.35007 10.60602,14.64603 0.83647,0.49133 1.70121,0.93225 2.58964,1.33145 z m 181.5531,-0.8076 c 0.24235,0 0.46965,-0.0614 0.67374,-0.14844 1.40798,-0.60648 1.648,-1.76314 1.38824,-3.04263 -0.20783,-1.01847 -0.66711,-1.95762 -1.18936,-2.84302 -0.43371,-0.73698 -0.707,-1.75109 -1.79804,-1.33141 -0.59748,0.23286 -1.19018,0.99901 -1.66816,1.43148 -0.8132,0.73698 -1.5125,1.61036 -1.51002,2.76701 0,1.60294 2.40821,3.25092 4.1036,3.16647 z m 38.14198,-0.028 c 1.69416,0.0818 4.09696,-1.56531 4.1036,-3.17056 0,-1.15665 -0.69826,-2.02593 -1.51397,-2.76292 -0.47278,-0.4299 -1.06672,-1.20117 -1.66421,-1.43148 -1.09104,-0.41967 -1.35747,0.59955 -1.79389,1.33142 -0.52744,0.89052 -0.98713,1.82686 -1.19745,2.84277 -0.25977,1.28206 -0.0208,2.43793 1.39219,3.04696 0.20366,0.0871 0.43185,0.13306 0.67373,0.14337 z m -21.40281,-8.79646 c 0.84436,-5.98032 -1.43541,-11.5478801 -2.21203,-17.4770401 0.18704,1.42792 -0.50978,3.34895 -0.62926,4.81013 -0.13508,1.65053 -0.16626,3.30363 0,4.9541601 0.30651,3.0068 1.54762,5.08469 2.84129,7.71275 z m 4.66781,-0.0333 c 1.28848,-2.62295 2.53061,-4.70212 2.83713,-7.70891 0.16834,-1.6454301 0.13507,-3.3059301 0,-4.9539201 -0.11634,-1.45861 -0.81609,-3.37964 -0.62906,-4.8101 -0.77412,5.92914 -3.05245,11.4900601 -2.20807,17.4729301 z"
       style="fill:#3b2110;fill-opacity:1;fill-rule:nonzero;stroke:none"
       inkscape:connector-curvature="0"
       sodipodi:nodetypes="ccccccccccccccccccccccccccccccccccccccccccccccccccccccccccccccccccccccscccccccccccccsccccccccccccccccccccccccccccccccccccccccccccccccccccccccccccccccccccccccccccscccccccccccccccccccccccccccccccccccccccccccccccccccccccccccccccccccccccccccccccccccsccccccccccccccccccccccccccccccccccccccccccccccccccccccccccccccccccccccccccccccccccccccccccccccccccccccccccccccccccccccccccccccccccccccccccccccccccccccccccccccccccccccccccccccccccccccccccccccccccccccccccccccccccccccccccccccccccccccccccccccccccccccccccccccccccccccccccccccccccccccccccccccccccccccccccccccccccccccccccccccccccccccccccccccccccccccccccccccccccccccccccccccccccccccccccccc" />
  </g>
</svg>
